<svg width="426" height="422" viewBox="0 0 426 422" fill="none" xmlns="http://www.w3.org/2000/svg">
<path d="M297.454 5.53162C299.008 4.95882 300.733 5.75481 301.306 7.3095L311.677 35.4597C312.25 37.0144 313.975 37.8104 315.529 37.2376C317.084 36.6648 318.809 37.4607 319.382 39.0154C319.954 40.5701 319.158 42.2948 317.604 42.8676C316.049 43.4404 315.253 45.1651 315.826 46.7198L385.488 235.795C397.803 269.221 380.689 306.301 347.263 318.617C313.837 330.932 276.757 313.818 264.442 280.392C248.881 238.157 202.027 216.532 159.791 232.094L131.641 242.465C98.2152 254.78 61.1348 237.667 48.8196 204.241C36.5044 170.815 53.618 133.734 87.0438 121.419L290.194 46.5719C299.522 43.1351 304.298 32.787 300.862 23.4589L295.676 9.38379C295.103 7.8291 295.899 6.10442 297.454 5.53162ZM89.1181 127.049C58.8016 138.219 43.28 171.85 54.4496 202.166C65.6192 232.483 99.2503 248.005 129.567 236.835L157.717 226.464C203.062 209.757 253.365 232.973 270.072 278.318C281.241 308.635 314.872 324.156 345.189 312.987C375.505 301.817 391.027 268.186 379.857 237.869L343.73 139.813C324.637 87.9899 267.148 61.4572 215.325 80.5505L89.1181 127.049Z" fill="#127E3F"/>
<path d="M285.255 10.0256C286.81 9.45284 288.535 10.2488 289.107 11.8035L301.726 46.0529C303.54 50.9761 309.001 53.4967 313.924 51.6828L320.024 49.4357C321.578 48.8629 323.303 49.6589 323.876 51.2136C324.449 52.7682 323.653 54.4929 322.098 55.0657L315.999 57.3129C311.076 59.1267 308.555 64.5882 310.369 69.5114L371.906 236.536C381.739 263.225 368.075 292.832 341.386 302.665C314.697 312.498 285.09 298.833 275.257 272.144C257.978 225.245 205.95 201.233 159.05 218.512L130.9 228.883C104.211 238.716 74.6043 225.052 64.7712 198.363C54.9382 171.674 68.6025 142.068 95.2914 132.234L276.391 65.5114C289.088 60.8336 295.588 46.7488 290.91 34.0521L283.477 13.8778C282.905 12.3231 283.701 10.5984 285.255 10.0256ZM97.3657 137.865C73.7862 146.552 61.7138 172.71 70.4013 196.289C79.0887 219.868 105.246 231.941 128.826 223.253L156.976 212.882C206.985 194.457 262.462 220.061 280.887 270.07C289.575 293.65 315.732 305.722 339.312 297.035C362.891 288.347 374.964 262.19 366.276 238.61L336.026 156.505C316.933 104.682 259.444 78.1497 207.621 97.243L97.3657 137.865Z" fill="#57BA48"/>
<path d="M272.118 14.8659C273.673 14.2931 275.398 15.089 275.971 16.6437L291.009 57.4615C294.16 66.0123 303.645 70.3902 312.196 67.2398L324.864 62.5727C326.418 61.9999 328.143 62.7958 328.716 64.3505C329.289 65.9052 328.493 67.6299 326.938 68.2027L314.27 72.8698C305.72 76.0202 301.342 85.5059 304.492 94.0567L357.387 237.623C364.547 257.056 354.597 278.615 335.163 285.775C315.73 292.935 294.171 282.985 287.011 263.551C267.918 211.728 210.256 184.726 158.433 203.82L129.813 214.364C110.38 221.524 88.8214 211.574 81.6614 192.141C74.5014 172.707 84.4511 151.149 103.885 143.989L261.526 85.9084C277.85 79.894 286.208 61.785 280.193 45.4607L270.341 18.718C269.768 17.1633 270.564 15.4387 272.118 14.8659ZM105.959 149.619C89.6348 155.633 81.277 173.742 87.2914 190.066C93.3058 206.391 111.415 214.748 127.739 208.734L161.989 196.115C213.812 177.022 271.301 203.555 290.394 255.378L292.641 261.477C298.656 277.801 316.765 286.159 333.089 280.145C349.413 274.13 357.771 256.021 351.757 239.697L327.729 174.482C308.636 122.659 251.147 96.1266 199.324 115.22L105.959 149.619Z" fill="#97E34B"/>
<path d="M310.689 24.1007C312.244 23.5279 313.969 24.3239 314.542 25.8786C315.114 27.4333 314.318 29.1579 312.764 29.7307L82.8705 114.431C45.5579 128.178 26.4543 169.57 40.2015 206.883C53.9487 244.196 95.3409 263.299 132.653 249.552L159.865 239.526C199.251 225.015 242.943 245.18 257.453 284.566C271.201 321.878 312.593 340.982 349.905 327.235C387.218 313.487 406.322 272.095 392.574 234.783L368.201 168.63C367.629 167.075 368.425 165.35 369.979 164.777C371.534 164.205 373.259 165.001 373.831 166.555L398.204 232.708C413.097 273.13 392.402 317.972 351.98 332.865C311.558 347.757 266.716 327.062 251.823 286.64C238.458 250.364 198.216 231.791 161.94 245.156L134.728 255.182C94.3058 270.075 49.4643 249.379 34.5715 208.957C19.6787 168.535 40.3742 123.694 80.7962 108.801L310.689 24.1007Z" fill="#A842C1"/>
</svg>
