<svg width="48" height="586" viewBox="0 0 48 586" fill="none" xmlns="http://www.w3.org/2000/svg">
<path d="M0 3C24.8528 3 45 23.1472 45 48V538C45 562.853 24.8528 583 0 583" stroke="#FD47BE" stroke-width="6"/>
<path d="M0 36.0977C5.52285 36.0977 10 40.5748 10 46.0977V535.174C10 540.697 5.52285 545.174 0 545.174" stroke="#97E34B" stroke-width="6"/>
<path d="M0 24.2773C12.1503 24.2773 22 34.1271 22 46.2773V539.723C22 551.873 12.1503 561.723 0 561.723" stroke="#57BA48" stroke-width="6"/>
<path d="M0 12.4565C18.7777 12.4565 34 27.6789 34 46.4565V538.755C34 557.533 18.7777 572.755 0 572.755" stroke="#127E3F" stroke-width="6"/>
</svg>
