<svg width="366" height="274" viewBox="0 0 366 274" fill="none" xmlns="http://www.w3.org/2000/svg">
<path d="M355 6C358.314 6 361 8.68629 361 12V238C361 255.121 347.121 269 330 269H11C7.68629 269 5 266.314 5 263V37C5 19.8792 18.8792 6 36 6H355Z" stroke="#A842C1" stroke-width="2"/>
<path d="M359 10C362.314 10 365 12.6863 365 16V242C365 259.121 351.121 273 334 273H15C11.6863 273 9 270.314 9 267V41C9 23.8792 22.8792 10 40 10H359Z" stroke="#FD47BE" stroke-width="2"/>
<path d="M351 1C354.314 1 357 3.68629 357 7V233C357 250.121 343.121 264 326 264H7C3.68629 264 1 261.314 1 258V32C1 14.8792 14.8792 1 32 1H351Z" stroke="#97E34B" stroke-width="2"/>
</svg>
