<?xml version="1.0" encoding="utf-8"?>
<svg version="1.1" xmlns:xlink="http://www.w3.org/1999/xlink" width="33px" height="33px" xmlns="http://www.w3.org/2000/svg">
  <defs>
    <pattern id="BGPattern" patternUnits="userSpaceOnUse" alignment="0 0" imageRepeat="None" />
    <mask fill="white" id="Clip2">
      <path d="M 6.1875 0  L 26.8125 0  C 28.51692708333334 0  29.974283854166668 0.6051432291666646  31.1845703125 1.8154296875000013  C 32.39485677083333 3.0257161458333304  33 4.4830729166666625  33 6.1875  L 33 26.8125  C 33 28.516927083333332  32.39485677083333 29.974283854166668  31.1845703125 31.1845703125  C 29.974283854166668 32.39485677083333  28.51692708333334 33  26.8125 33  L 22.7734375 33  L 22.7734375 20.216796874999996  L 27.048828125 20.216796874999996  L 27.693359375 15.232421874999998  L 22.7734375 15.232421874999998  L 22.7734375 12.052734375  C 22.7734375 11.250651041666663  22.94173177083334 10.649088541666664  23.2783203125 10.248046875  C 23.614908854166668 9.847005208333332  24.270182291666668 9.646484375000002  25.244140625 9.646484375000002  L 27.865234375 9.624999999999998  L 27.865234375 5.177734374999999  C 26.962890625 5.048828124999999  25.688151041666668 4.984374999999999  24.041015625 4.984374999999999  C 22.093098958333336 4.984374999999999  20.535481770833336 5.557291666666663  19.3681640625 6.703125  C 18.200846354166668 7.848958333333333  17.6171875 9.467447916666664  17.6171875 11.558593749999998  L 17.6171875 15.232421874999998  L 13.3203125 15.232421874999998  L 13.3203125 20.216796874999996  L 17 20.216796874999996  L 17 33  L 6.1875 33  C 4.483072916666667 33  3.0257161458333335 32.39485677083333  1.8154296875 31.1845703125  C 0.6051432291666666 29.974283854166668  0 28.516927083333332  0 26.8125  L 0 6.1875  C 0 4.4830729166666625  0.6051432291666666 3.0257161458333304  1.8154296875 1.8154296875000013  C 3.0257161458333335 0.6051432291666646  4.483072916666667 0  6.1875 0  Z " fill-rule="evenodd" />
    </mask>
  </defs>
  <g transform="matrix(1 0 0 1 -57 -1903 )">
    <path d="M 6.1875 0  L 26.8125 0  C 28.51692708333334 0  29.974283854166668 0.6051432291666646  31.1845703125 1.8154296875000013  C 32.39485677083333 3.0257161458333304  33 4.4830729166666625  33 6.1875  L 33 26.8125  C 33 28.516927083333332  32.39485677083333 29.974283854166668  31.1845703125 31.1845703125  C 29.974283854166668 32.39485677083333  28.51692708333334 33  26.8125 33  L 22.7734375 33  L 22.7734375 20.216796874999996  L 27.048828125 20.216796874999996  L 27.693359375 15.232421874999998  L 22.7734375 15.232421874999998  L 22.7734375 12.052734375  C 22.7734375 11.250651041666663  22.94173177083334 10.649088541666664  23.2783203125 10.248046875  C 23.614908854166668 9.847005208333332  24.270182291666668 9.646484375000002  25.244140625 9.646484375000002  L 27.865234375 9.624999999999998  L 27.865234375 5.177734374999999  C 26.962890625 5.048828124999999  25.688151041666668 4.984374999999999  24.041015625 4.984374999999999  C 22.093098958333336 4.984374999999999  20.535481770833336 5.557291666666663  19.3681640625 6.703125  C 18.200846354166668 7.848958333333333  17.6171875 9.467447916666664  17.6171875 11.558593749999998  L 17.6171875 15.232421874999998  L 13.3203125 15.232421874999998  L 13.3203125 20.216796874999996  L 17 20.216796874999996  L 17 33  L 6.1875 33  C 4.483072916666667 33  3.0257161458333335 32.39485677083333  1.8154296875 31.1845703125  C 0.6051432291666666 29.974283854166668  0 28.516927083333332  0 26.8125  L 0 6.1875  C 0 4.4830729166666625  0.6051432291666666 3.0257161458333304  1.8154296875 1.8154296875000013  C 3.0257161458333335 0.6051432291666646  4.483072916666667 0  6.1875 0  Z " fill-rule="nonzero" fill="rgba(56, 102, 65, 1)" stroke="none" transform="matrix(1 0 0 1 57 1903 )" class="fill" />
    <path d="M 6.1875 0  L 26.8125 0  C 28.51692708333334 0  29.974283854166668 0.6051432291666646  31.1845703125 1.8154296875000013  C 32.39485677083333 3.0257161458333304  33 4.4830729166666625  33 6.1875  L 33 26.8125  C 33 28.516927083333332  32.39485677083333 29.974283854166668  31.1845703125 31.1845703125  C 29.974283854166668 32.39485677083333  28.51692708333334 33  26.8125 33  L 22.7734375 33  L 22.7734375 20.216796874999996  L 27.048828125 20.216796874999996  L 27.693359375 15.232421874999998  L 22.7734375 15.232421874999998  L 22.7734375 12.052734375  C 22.7734375 11.250651041666663  22.94173177083334 10.649088541666664  23.2783203125 10.248046875  C 23.614908854166668 9.847005208333332  24.270182291666668 9.646484375000002  25.244140625 9.646484375000002  L 27.865234375 9.624999999999998  L 27.865234375 5.177734374999999  C 26.962890625 5.048828124999999  25.688151041666668 4.984374999999999  24.041015625 4.984374999999999  C 22.093098958333336 4.984374999999999  20.535481770833336 5.557291666666663  19.3681640625 6.703125  C 18.200846354166668 7.848958333333333  17.6171875 9.467447916666664  17.6171875 11.558593749999998  L 17.6171875 15.232421874999998  L 13.3203125 15.232421874999998  L 13.3203125 20.216796874999996  L 17 20.216796874999996  L 17 33  L 6.1875 33  C 4.483072916666667 33  3.0257161458333335 32.39485677083333  1.8154296875 31.1845703125  C 0.6051432291666666 29.974283854166668  0 28.516927083333332  0 26.8125  L 0 6.1875  C 0 4.4830729166666625  0.6051432291666666 3.0257161458333304  1.8154296875 1.8154296875000013  C 3.0257161458333335 0.6051432291666646  4.483072916666667 0  6.1875 0  Z " stroke-width="0" stroke-dasharray="0" stroke="rgba(255, 255, 255, 0)" fill="none" transform="matrix(1 0 0 1 57 1903 )" class="stroke" mask="url(#Clip2)" />
  </g>
</svg>