<?xml version="1.0" encoding="utf-8"?>
<svg version="1.1" xmlns:xlink="http://www.w3.org/1999/xlink" width="24px" height="24px" xmlns="http://www.w3.org/2000/svg">
  <defs>
    <pattern id="BGPattern" patternUnits="userSpaceOnUse" alignment="0 0" imageRepeat="None" />
    <mask fill="white" id="Clip7">
      <path d="M 14.828125 9.171875  C 15.609375 9.953125  16 10.895833333333332  16 12  C 16 13.104166666666666  15.609375 14.046874999999998  14.828125 14.828125000000002  C 14.046875 15.609375  13.104166666666668 16  12 16  C 10.895833333333334 16  9.953125 15.609375  9.171875 14.828125000000002  C 8.390625 14.046874999999998  8 13.104166666666666  8 12  C 8 10.895833333333332  8.390625 9.953125  9.171875 9.171875  C 9.953125 8.390625  10.895833333333334 8  12 8  C 13.104166666666668 8  14.046875 8.390625  14.828125 9.171875  Z M 16.2421875 16.2421875  C 17.4140625 15.0703125  18 13.656250000000002  18 12  C 18 10.34375  17.4140625 8.9296875  16.2421875 7.7578125  C 15.070312500000004 6.5859375  13.656250000000002 6  12 6  C 10.34375 6  8.9296875 6.5859375  7.7578125 7.7578125  C 6.5859375 8.9296875  6 10.34375  6 12  C 6 13.656250000000002  6.5859375 15.0703125  7.7578125 16.2421875  C 8.9296875 17.4140625  10.34375 18  12 18  C 13.656250000000002 18  15.070312500000004 17.4140625  16.2421875 16.2421875  Z M 17.65625 6.343749999999999  C 19.21875 7.906250000000001  20 9.791666666666664  20 12  C 20 14.208333333333332  19.21875 16.09375  17.65625 17.65625  C 16.09375 19.21875  14.208333333333336 20  12 20  C 9.791666666666668 20  7.90625 19.21875  6.34375 17.65625  C 4.78125 16.09375  4 14.208333333333332  4 12  C 4 9.791666666666664  4.78125 7.906250000000001  6.34375 6.343749999999999  C 7.90625 4.78125  9.791666666666668 3.999999999999999  12 3.999999999999999  C 14.208333333333336 3.999999999999999  16.09375 4.78125  17.65625 6.343749999999999  Z M 21.203125 15.882812500000002  C 21.734375 14.6484375  22 13.354166666666668  22 12  C 22 10.645833333333332  21.734375 9.3515625  21.203125 8.1171875  C 20.671875 6.882812499999999  19.9609375 5.820312500000001  19.0703125 4.929687500000001  C 18.1796875 4.039062500000001  17.1171875 3.328125  15.8828125 2.796875000000001  C 14.6484375 2.265624999999999  13.354166666666668 2.000000000000001  12 2.000000000000001  C 10.645833333333334 2.000000000000001  9.3515625 2.265624999999999  8.1171875 2.796875000000001  C 6.8828125 3.328125  5.8203125 4.039062500000001  4.9296875 4.929687500000001  C 4.0390625 5.820312500000001  3.328125 6.882812499999999  2.796875 8.1171875  C 2.265625 9.3515625  2 10.645833333333332  2 12  C 2 13.354166666666668  2.265625 14.6484375  2.796875 15.882812500000002  C 3.328125 17.1171875  4.0390625 18.1796875  4.9296875 19.0703125  C 5.8203125 19.9609375  6.8828125 20.671875  8.1171875 21.203125  C 9.3515625 21.734375  10.645833333333334 22  12 22  C 13.354166666666668 22  14.6484375 21.734375  15.8828125 21.203125  C 17.1171875 20.671875  18.1796875 19.9609375  19.0703125 19.0703125  C 19.9609375 18.1796875  20.671875 17.1171875  21.203125 15.882812500000002  Z M 22.390625 5.9765625  C 23.463541666666664 7.815104166666664  24 9.822916666666664  24 12  C 24 14.177083333333334  23.463541666666664 16.18489583333333  22.390625 18.0234375  C 21.317708333333336 19.861979166666668  19.861979166666668 21.317708333333332  18.0234375 22.390625  C 16.184895833333336 23.463541666666668  14.177083333333334 24  12 24  C 9.822916666666668 24  7.815104166666667 23.463541666666668  5.9765625 22.390625  C 4.138020833333334 21.317708333333332  2.682291666666667 19.861979166666668  1.609375 18.0234375  C 0.5364583333333333 16.18489583333333  0 14.177083333333334  0 12  C 0 9.822916666666664  0.5364583333333333 7.815104166666664  1.609375 5.9765625  C 2.682291666666667 4.138020833333333  4.138020833333334 2.6822916666666643  5.9765625 1.6093749999999991  C 7.815104166666667 0.5364583333333313  9.822916666666668 0  12 0  C 14.177083333333334 0  16.184895833333336 0.5364583333333313  18.0234375 1.6093749999999991  C 19.861979166666668 2.6822916666666643  21.317708333333336 4.138020833333333  22.390625 5.9765625  Z " fill-rule="evenodd" />
    </mask>
  </defs>
  <g transform="matrix(1 0 0 1 -37 -918 )">
    <path d="M 14.828125 9.171875  C 15.609375 9.953125  16 10.895833333333332  16 12  C 16 13.104166666666666  15.609375 14.046874999999998  14.828125 14.828125000000002  C 14.046875 15.609375  13.104166666666668 16  12 16  C 10.895833333333334 16  9.953125 15.609375  9.171875 14.828125000000002  C 8.390625 14.046874999999998  8 13.104166666666666  8 12  C 8 10.895833333333332  8.390625 9.953125  9.171875 9.171875  C 9.953125 8.390625  10.895833333333334 8  12 8  C 13.104166666666668 8  14.046875 8.390625  14.828125 9.171875  Z M 16.2421875 16.2421875  C 17.4140625 15.0703125  18 13.656250000000002  18 12  C 18 10.34375  17.4140625 8.9296875  16.2421875 7.7578125  C 15.070312500000004 6.5859375  13.656250000000002 6  12 6  C 10.34375 6  8.9296875 6.5859375  7.7578125 7.7578125  C 6.5859375 8.9296875  6 10.34375  6 12  C 6 13.656250000000002  6.5859375 15.0703125  7.7578125 16.2421875  C 8.9296875 17.4140625  10.34375 18  12 18  C 13.656250000000002 18  15.070312500000004 17.4140625  16.2421875 16.2421875  Z M 17.65625 6.343749999999999  C 19.21875 7.906250000000001  20 9.791666666666664  20 12  C 20 14.208333333333332  19.21875 16.09375  17.65625 17.65625  C 16.09375 19.21875  14.208333333333336 20  12 20  C 9.791666666666668 20  7.90625 19.21875  6.34375 17.65625  C 4.78125 16.09375  4 14.208333333333332  4 12  C 4 9.791666666666664  4.78125 7.906250000000001  6.34375 6.343749999999999  C 7.90625 4.78125  9.791666666666668 3.999999999999999  12 3.999999999999999  C 14.208333333333336 3.999999999999999  16.09375 4.78125  17.65625 6.343749999999999  Z M 21.203125 15.882812500000002  C 21.734375 14.6484375  22 13.354166666666668  22 12  C 22 10.645833333333332  21.734375 9.3515625  21.203125 8.1171875  C 20.671875 6.882812499999999  19.9609375 5.820312500000001  19.0703125 4.929687500000001  C 18.1796875 4.039062500000001  17.1171875 3.328125  15.8828125 2.796875000000001  C 14.6484375 2.265624999999999  13.354166666666668 2.000000000000001  12 2.000000000000001  C 10.645833333333334 2.000000000000001  9.3515625 2.265624999999999  8.1171875 2.796875000000001  C 6.8828125 3.328125  5.8203125 4.039062500000001  4.9296875 4.929687500000001  C 4.0390625 5.820312500000001  3.328125 6.882812499999999  2.796875 8.1171875  C 2.265625 9.3515625  2 10.645833333333332  2 12  C 2 13.354166666666668  2.265625 14.6484375  2.796875 15.882812500000002  C 3.328125 17.1171875  4.0390625 18.1796875  4.9296875 19.0703125  C 5.8203125 19.9609375  6.8828125 20.671875  8.1171875 21.203125  C 9.3515625 21.734375  10.645833333333334 22  12 22  C 13.354166666666668 22  14.6484375 21.734375  15.8828125 21.203125  C 17.1171875 20.671875  18.1796875 19.9609375  19.0703125 19.0703125  C 19.9609375 18.1796875  20.671875 17.1171875  21.203125 15.882812500000002  Z M 22.390625 5.9765625  C 23.463541666666664 7.815104166666664  24 9.822916666666664  24 12  C 24 14.177083333333334  23.463541666666664 16.18489583333333  22.390625 18.0234375  C 21.317708333333336 19.861979166666668  19.861979166666668 21.317708333333332  18.0234375 22.390625  C 16.184895833333336 23.463541666666668  14.177083333333334 24  12 24  C 9.822916666666668 24  7.815104166666667 23.463541666666668  5.9765625 22.390625  C 4.138020833333334 21.317708333333332  2.682291666666667 19.861979166666668  1.609375 18.0234375  C 0.5364583333333333 16.18489583333333  0 14.177083333333334  0 12  C 0 9.822916666666664  0.5364583333333333 7.815104166666664  1.609375 5.9765625  C 2.682291666666667 4.138020833333333  4.138020833333334 2.6822916666666643  5.9765625 1.6093749999999991  C 7.815104166666667 0.5364583333333313  9.822916666666668 0  12 0  C 14.177083333333334 0  16.184895833333336 0.5364583333333313  18.0234375 1.6093749999999991  C 19.861979166666668 2.6822916666666643  21.317708333333336 4.138020833333333  22.390625 5.9765625  Z " fill-rule="nonzero" fill="rgba(107, 153, 80, 1)" stroke="none" transform="matrix(1 0 0 1 37 918 )" class="fill" />
    <path d="M 14.828125 9.171875  C 15.609375 9.953125  16 10.895833333333332  16 12  C 16 13.104166666666666  15.609375 14.046874999999998  14.828125 14.828125000000002  C 14.046875 15.609375  13.104166666666668 16  12 16  C 10.895833333333334 16  9.953125 15.609375  9.171875 14.828125000000002  C 8.390625 14.046874999999998  8 13.104166666666666  8 12  C 8 10.895833333333332  8.390625 9.953125  9.171875 9.171875  C 9.953125 8.390625  10.895833333333334 8  12 8  C 13.104166666666668 8  14.046875 8.390625  14.828125 9.171875  Z " stroke-width="0" stroke-dasharray="0" stroke="rgba(255, 255, 255, 0)" fill="none" transform="matrix(1 0 0 1 37 918 )" class="stroke" mask="url(#Clip7)" />
    <path d="M 16.2421875 16.2421875  C 17.4140625 15.0703125  18 13.656250000000002  18 12  C 18 10.34375  17.4140625 8.9296875  16.2421875 7.7578125  C 15.070312500000004 6.5859375  13.656250000000002 6  12 6  C 10.34375 6  8.9296875 6.5859375  7.7578125 7.7578125  C 6.5859375 8.9296875  6 10.34375  6 12  C 6 13.656250000000002  6.5859375 15.0703125  7.7578125 16.2421875  C 8.9296875 17.4140625  10.34375 18  12 18  C 13.656250000000002 18  15.070312500000004 17.4140625  16.2421875 16.2421875  Z " stroke-width="0" stroke-dasharray="0" stroke="rgba(255, 255, 255, 0)" fill="none" transform="matrix(1 0 0 1 37 918 )" class="stroke" mask="url(#Clip7)" />
    <path d="M 17.65625 6.343749999999999  C 19.21875 7.906250000000001  20 9.791666666666664  20 12  C 20 14.208333333333332  19.21875 16.09375  17.65625 17.65625  C 16.09375 19.21875  14.208333333333336 20  12 20  C 9.791666666666668 20  7.90625 19.21875  6.34375 17.65625  C 4.78125 16.09375  4 14.208333333333332  4 12  C 4 9.791666666666664  4.78125 7.906250000000001  6.34375 6.343749999999999  C 7.90625 4.78125  9.791666666666668 3.999999999999999  12 3.999999999999999  C 14.208333333333336 3.999999999999999  16.09375 4.78125  17.65625 6.343749999999999  Z " stroke-width="0" stroke-dasharray="0" stroke="rgba(255, 255, 255, 0)" fill="none" transform="matrix(1 0 0 1 37 918 )" class="stroke" mask="url(#Clip7)" />
    <path d="M 21.203125 15.882812500000002  C 21.734375 14.6484375  22 13.354166666666668  22 12  C 22 10.645833333333332  21.734375 9.3515625  21.203125 8.1171875  C 20.671875 6.882812499999999  19.9609375 5.820312500000001  19.0703125 4.929687500000001  C 18.1796875 4.039062500000001  17.1171875 3.328125  15.8828125 2.796875000000001  C 14.6484375 2.265624999999999  13.354166666666668 2.000000000000001  12 2.000000000000001  C 10.645833333333334 2.000000000000001  9.3515625 2.265624999999999  8.1171875 2.796875000000001  C 6.8828125 3.328125  5.8203125 4.039062500000001  4.9296875 4.929687500000001  C 4.0390625 5.820312500000001  3.328125 6.882812499999999  2.796875 8.1171875  C 2.265625 9.3515625  2 10.645833333333332  2 12  C 2 13.354166666666668  2.265625 14.6484375  2.796875 15.882812500000002  C 3.328125 17.1171875  4.0390625 18.1796875  4.9296875 19.0703125  C 5.8203125 19.9609375  6.8828125 20.671875  8.1171875 21.203125  C 9.3515625 21.734375  10.645833333333334 22  12 22  C 13.354166666666668 22  14.6484375 21.734375  15.8828125 21.203125  C 17.1171875 20.671875  18.1796875 19.9609375  19.0703125 19.0703125  C 19.9609375 18.1796875  20.671875 17.1171875  21.203125 15.882812500000002  Z " stroke-width="0" stroke-dasharray="0" stroke="rgba(255, 255, 255, 0)" fill="none" transform="matrix(1 0 0 1 37 918 )" class="stroke" mask="url(#Clip7)" />
    <path d="M 22.390625 5.9765625  C 23.463541666666664 7.815104166666664  24 9.822916666666664  24 12  C 24 14.177083333333334  23.463541666666664 16.18489583333333  22.390625 18.0234375  C 21.317708333333336 19.861979166666668  19.861979166666668 21.317708333333332  18.0234375 22.390625  C 16.184895833333336 23.463541666666668  14.177083333333334 24  12 24  C 9.822916666666668 24  7.815104166666667 23.463541666666668  5.9765625 22.390625  C 4.138020833333334 21.317708333333332  2.682291666666667 19.861979166666668  1.609375 18.0234375  C 0.5364583333333333 16.18489583333333  0 14.177083333333334  0 12  C 0 9.822916666666664  0.5364583333333333 7.815104166666664  1.609375 5.9765625  C 2.682291666666667 4.138020833333333  4.138020833333334 2.6822916666666643  5.9765625 1.6093749999999991  C 7.815104166666667 0.5364583333333313  9.822916666666668 0  12 0  C 14.177083333333334 0  16.184895833333336 0.5364583333333313  18.0234375 1.6093749999999991  C 19.861979166666668 2.6822916666666643  21.317708333333336 4.138020833333333  22.390625 5.9765625  Z " stroke-width="0" stroke-dasharray="0" stroke="rgba(255, 255, 255, 0)" fill="none" transform="matrix(1 0 0 1 37 918 )" class="stroke" mask="url(#Clip7)" />
  </g>
</svg>