<?xml version="1.0" encoding="utf-8"?>
<svg version="1.1" xmlns:xlink="http://www.w3.org/1999/xlink" width="43px" height="28px" xmlns="http://www.w3.org/2000/svg">
  <defs>
    <pattern id="BGPattern" patternUnits="userSpaceOnUse" alignment="0 0" imageRepeat="None" />
    <mask fill="white" id="Clip13">
      <path d="M 22.395833333333336 16.205729166666668  L 33.10850694444444 12.90625  L 33.44444444444444 18.666666666666668  C 33.49421296296296 19.505208333333332  32.98408564814815 20.282986111111107  31.9140625 21  C 30.844039351851855 21.717013888888886  29.382089120370374 22.28515625  27.528211805555554 22.704427083333336  C 25.67433449074074 23.123697916666664  23.664930555555554 23.333333333333336  21.5 23.333333333333336  C 19.335069444444446 23.333333333333336  17.325665509259263 23.123697916666664  15.471788194444445 22.704427083333336  C 13.61791087962963 22.28515625  12.15596064814815 21.717013888888886  11.0859375 21  C 10.015914351851853 20.282986111111107  9.505787037037038 19.505208333333332  9.555555555555555 18.666666666666668  L 9.891493055555555 12.90625  L 20.604166666666668 16.205729166666668  C 20.87789351851852 16.290798611111114  21.17650462962963 16.333333333333332  21.5 16.333333333333332  C 21.823495370370374 16.333333333333332  22.122106481481485 16.290798611111114  22.395833333333336 16.205729166666668  Z M 42.58940972222222 6.434895833333334  C 42.863136574074076 6.532118055555554  43 6.720486111111109  43 7  C 43 7.2795138888888875  42.863136574074076 7.467881944444441  42.58940972222222 7.565104166666666  L 21.686631944444446 13.981770833333334  C 21.63686342592593 13.993923611111109  21.57465277777778 14  21.5 14  C 21.42534722222222 14  21.363136574074076 13.993923611111109  21.313368055555554 13.981770833333334  L 9.144965277777777 10.2265625  C 8.609953703703704 10.639756944444441  8.168258101851853 11.317274305555554  7.819878472222222 12.259114583333334  C 7.4714988425925934 13.200954861111109  7.259982638888888 14.285590277777775  7.185329861111112 15.513020833333332  C 7.969184027777778 15.950520833333332  8.36111111111111 16.612847222222218  8.36111111111111 17.5  C 8.36111111111111 18.338541666666668  8.000289351851853 18.988715277777775  7.278645833333334 19.450520833333332  L 8.36111111111111 27.34375  C 8.385995370370372 27.513888888888886  8.336226851851853 27.665798611111114  8.211805555555555 27.799479166666664  C 8.09982638888889 27.93315972222222  7.950520833333334 28  7.763888888888888 28  L 4.180555555555555 28  C 3.993923611111111 28  3.844618055555556 27.93315972222222  3.732638888888889 27.799479166666664  C 3.6082175925925926 27.665798611111114  3.5584490740740744 27.513888888888886  3.583333333333333 27.34375  L 4.665798611111112 19.450520833333332  C 3.9441550925925926 18.988715277777775  3.583333333333333 18.338541666666668  3.583333333333333 17.5  C 3.583333333333333 16.612847222222218  3.9877025462962963 15.938368055555557  4.796440972222222 15.4765625  C 4.933304398148149 12.9609375  5.54296875 10.955729166666666  6.625434027777778 9.4609375  L 0.4105902777777778 7.565104166666666  C 0.13686342592592593 7.467881944444441  0 7.2795138888888875  0 7  C 0 6.720486111111109  0.13686342592592593 6.532118055555554  0.4105902777777778 6.434895833333334  L 21.313368055555554 0.01822916666666563  C 21.363136574074076 0.006076388888887507  21.42534722222222 0  21.5 0  C 21.57465277777778 0  21.63686342592593 0.006076388888887507  21.686631944444446 0.01822916666666563  L 42.58940972222222 6.434895833333334  Z " fill-rule="evenodd" />
    </mask>
  </defs>
  <g transform="matrix(1 0 0 1 -28 -569 )">
    <path d="M 22.395833333333336 16.205729166666668  L 33.10850694444444 12.90625  L 33.44444444444444 18.666666666666668  C 33.49421296296296 19.505208333333332  32.98408564814815 20.282986111111107  31.9140625 21  C 30.844039351851855 21.717013888888886  29.382089120370374 22.28515625  27.528211805555554 22.704427083333336  C 25.67433449074074 23.123697916666664  23.664930555555554 23.333333333333336  21.5 23.333333333333336  C 19.335069444444446 23.333333333333336  17.325665509259263 23.123697916666664  15.471788194444445 22.704427083333336  C 13.61791087962963 22.28515625  12.15596064814815 21.717013888888886  11.0859375 21  C 10.015914351851853 20.282986111111107  9.505787037037038 19.505208333333332  9.555555555555555 18.666666666666668  L 9.891493055555555 12.90625  L 20.604166666666668 16.205729166666668  C 20.87789351851852 16.290798611111114  21.17650462962963 16.333333333333332  21.5 16.333333333333332  C 21.823495370370374 16.333333333333332  22.122106481481485 16.290798611111114  22.395833333333336 16.205729166666668  Z M 42.58940972222222 6.434895833333334  C 42.863136574074076 6.532118055555554  43 6.720486111111109  43 7  C 43 7.2795138888888875  42.863136574074076 7.467881944444441  42.58940972222222 7.565104166666666  L 21.686631944444446 13.981770833333334  C 21.63686342592593 13.993923611111109  21.57465277777778 14  21.5 14  C 21.42534722222222 14  21.363136574074076 13.993923611111109  21.313368055555554 13.981770833333334  L 9.144965277777777 10.2265625  C 8.609953703703704 10.639756944444441  8.168258101851853 11.317274305555554  7.819878472222222 12.259114583333334  C 7.4714988425925934 13.200954861111109  7.259982638888888 14.285590277777775  7.185329861111112 15.513020833333332  C 7.969184027777778 15.950520833333332  8.36111111111111 16.612847222222218  8.36111111111111 17.5  C 8.36111111111111 18.338541666666668  8.000289351851853 18.988715277777775  7.278645833333334 19.450520833333332  L 8.36111111111111 27.34375  C 8.385995370370372 27.513888888888886  8.336226851851853 27.665798611111114  8.211805555555555 27.799479166666664  C 8.09982638888889 27.93315972222222  7.950520833333334 28  7.763888888888888 28  L 4.180555555555555 28  C 3.993923611111111 28  3.844618055555556 27.93315972222222  3.732638888888889 27.799479166666664  C 3.6082175925925926 27.665798611111114  3.5584490740740744 27.513888888888886  3.583333333333333 27.34375  L 4.665798611111112 19.450520833333332  C 3.9441550925925926 18.988715277777775  3.583333333333333 18.338541666666668  3.583333333333333 17.5  C 3.583333333333333 16.612847222222218  3.9877025462962963 15.938368055555557  4.796440972222222 15.4765625  C 4.933304398148149 12.9609375  5.54296875 10.955729166666666  6.625434027777778 9.4609375  L 0.4105902777777778 7.565104166666666  C 0.13686342592592593 7.467881944444441  0 7.2795138888888875  0 7  C 0 6.720486111111109  0.13686342592592593 6.532118055555554  0.4105902777777778 6.434895833333334  L 21.313368055555554 0.01822916666666563  C 21.363136574074076 0.006076388888887507  21.42534722222222 0  21.5 0  C 21.57465277777778 0  21.63686342592593 0.006076388888887507  21.686631944444446 0.01822916666666563  L 42.58940972222222 6.434895833333334  Z " fill-rule="nonzero" fill="rgba(107, 153, 80, 1)" stroke="none" transform="matrix(1 0 0 1 28 569 )" class="fill" />
    <path d="M 22.395833333333336 16.205729166666668  L 33.10850694444444 12.90625  L 33.44444444444444 18.666666666666668  C 33.49421296296296 19.505208333333332  32.98408564814815 20.282986111111107  31.9140625 21  C 30.844039351851855 21.717013888888886  29.382089120370374 22.28515625  27.528211805555554 22.704427083333336  C 25.67433449074074 23.123697916666664  23.664930555555554 23.333333333333336  21.5 23.333333333333336  C 19.335069444444446 23.333333333333336  17.325665509259263 23.123697916666664  15.471788194444445 22.704427083333336  C 13.61791087962963 22.28515625  12.15596064814815 21.717013888888886  11.0859375 21  C 10.015914351851853 20.282986111111107  9.505787037037038 19.505208333333332  9.555555555555555 18.666666666666668  L 9.891493055555555 12.90625  L 20.604166666666668 16.205729166666668  C 20.87789351851852 16.290798611111114  21.17650462962963 16.333333333333332  21.5 16.333333333333332  C 21.823495370370374 16.333333333333332  22.122106481481485 16.290798611111114  22.395833333333336 16.205729166666668  Z " stroke-width="0" stroke-dasharray="0" stroke="rgba(255, 255, 255, 0)" fill="none" transform="matrix(1 0 0 1 28 569 )" class="stroke" mask="url(#Clip13)" />
    <path d="M 42.58940972222222 6.434895833333334  C 42.863136574074076 6.532118055555554  43 6.720486111111109  43 7  C 43 7.2795138888888875  42.863136574074076 7.467881944444441  42.58940972222222 7.565104166666666  L 21.686631944444446 13.981770833333334  C 21.63686342592593 13.993923611111109  21.57465277777778 14  21.5 14  C 21.42534722222222 14  21.363136574074076 13.993923611111109  21.313368055555554 13.981770833333334  L 9.144965277777777 10.2265625  C 8.609953703703704 10.639756944444441  8.168258101851853 11.317274305555554  7.819878472222222 12.259114583333334  C 7.4714988425925934 13.200954861111109  7.259982638888888 14.285590277777775  7.185329861111112 15.513020833333332  C 7.969184027777778 15.950520833333332  8.36111111111111 16.612847222222218  8.36111111111111 17.5  C 8.36111111111111 18.338541666666668  8.000289351851853 18.988715277777775  7.278645833333334 19.450520833333332  L 8.36111111111111 27.34375  C 8.385995370370372 27.513888888888886  8.336226851851853 27.665798611111114  8.211805555555555 27.799479166666664  C 8.09982638888889 27.93315972222222  7.950520833333334 28  7.763888888888888 28  L 4.180555555555555 28  C 3.993923611111111 28  3.844618055555556 27.93315972222222  3.732638888888889 27.799479166666664  C 3.6082175925925926 27.665798611111114  3.5584490740740744 27.513888888888886  3.583333333333333 27.34375  L 4.665798611111112 19.450520833333332  C 3.9441550925925926 18.988715277777775  3.583333333333333 18.338541666666668  3.583333333333333 17.5  C 3.583333333333333 16.612847222222218  3.9877025462962963 15.938368055555557  4.796440972222222 15.4765625  C 4.933304398148149 12.9609375  5.54296875 10.955729166666666  6.625434027777778 9.4609375  L 0.4105902777777778 7.565104166666666  C 0.13686342592592593 7.467881944444441  0 7.2795138888888875  0 7  C 0 6.720486111111109  0.13686342592592593 6.532118055555554  0.4105902777777778 6.434895833333334  L 21.313368055555554 0.01822916666666563  C 21.363136574074076 0.006076388888887507  21.42534722222222 0  21.5 0  C 21.57465277777778 0  21.63686342592593 0.006076388888887507  21.686631944444446 0.01822916666666563  L 42.58940972222222 6.434895833333334  Z " stroke-width="0" stroke-dasharray="0" stroke="rgba(255, 255, 255, 0)" fill="none" transform="matrix(1 0 0 1 28 569 )" class="stroke" mask="url(#Clip13)" />
  </g>
</svg>