<?xml version="1.0" encoding="utf-8"?>
<svg version="1.1" xmlns:xlink="http://www.w3.org/1999/xlink" width="32px" height="30px" xmlns="http://www.w3.org/2000/svg">
  <defs>
    <pattern id="BGPattern" patternUnits="userSpaceOnUse" alignment="0 0" imageRepeat="None" />
    <mask fill="white" id="Clip14">
      <path d="M 30.367346938775512 5.996093749999999  C 30.853941576630657 6.191406250000001  31.23169267707083 6.471354166666664  31.500600240096038 6.835937500000001  C 32.01280512204882 7.578124999999999  32.128051220488196 8.417968750000002  31.846338535414166 9.355468750000002  L 26.56422569027611 27.05078125  C 26.320928371348543 27.884114583333336  25.831132452981194 28.583984375  25.09483793517407 29.150390625  C 24.35854341736695 29.716796875  23.574229691876752 30  22.741896758703483 30  L 5.013205282112845 30  C 4.0272108843537415 30  3.076430572228892 29.651692708333336  2.1608643457382954 28.955078125  C 1.2452981192476993 28.258463541666668  0.6082432973189277 27.40234375  0.24969987995198079 26.38671875  C -0.057623049219687875 25.514322916666664  -0.07042817126850741 24.6875  0.2112845138055222 23.90625  C 0.2112845138055222 23.854166666666664  0.2304921968787515 23.678385416666664  0.2689075630252101 23.37890625  C 0.30732292917166865 23.079427083333332  0.33293317326930777 22.838541666666668  0.3457382953181273 22.65625  C 0.3585434173669468 22.552083333333336  0.3393357342937175 22.412109375  0.28811524609843936 22.236328125  C 0.23689475790316128 22.060546875  0.217687074829932 21.933593750000004  0.2304921968787515 21.85546875  C 0.25610244097639057 21.712239583333332  0.30732292917166865 21.57552083333333  0.38415366146458585 21.4453125  C 0.460984393757503 21.315104166666664  0.5666266506602641 21.162109374999996  0.7010804321728692 20.986328124999996  C 0.8355342136854742 20.810546874999996  0.9411764705882353 20.657552083333332  1.0180072028811524 20.527343750000004  C 1.3125250100040018 20.03255208333333  1.600640256102441 19.43684895833333  1.8823529411764706 18.740234375000004  C 2.1640656262505003 18.043619791666668  2.356142456982793 17.447916666666664  2.458583433373349 16.953125000000004  C 2.4969987995198077 16.822916666666664  2.500200080032013 16.627604166666664  2.468187274909964 16.367187500000004  C 2.4361744697879155 16.106770833333336  2.4329731892757103 15.924479166666663  2.458583433373349 15.8203125  C 2.4969987995198077 15.677083333333332  2.6058423369347743 15.494791666666668  2.7851140456182475 15.273437499999998  C 2.9643857543017207 15.052083333333336  3.073229291716687 14.902343749999998  3.1116446578631454 14.82421875  C 3.3805522208883554 14.35546875  3.6494597839135654 13.756510416666666  3.9183673469387754 13.027343749999998  C 4.187274909963985 12.298177083333332  4.34733893557423 11.712239583333332  4.398559423769508 11.269531249999998  C 4.411364545818327 11.152343749999998  4.395358143257303 10.944010416666666  4.350540216086435 10.644531250000002  C 4.305722288915566 10.345052083333332  4.308923569427772 10.162760416666664  4.3601440576230495 10.097656249999998  C 4.411364545818327 9.928385416666664  4.552220888355342 9.729817708333329  4.782713085234094 9.501953125000002  C 5.013205282112845 9.274088541666666  5.15406162464986 9.127604166666666  5.205282112845138 9.062500000000002  C 5.44857943177271 8.723958333333332  5.720688275310125 8.173828125  6.021608643457383 7.412109375  C 6.322529011604642 6.650390625  6.498599439775911 6.022135416666666  6.549819927971188 5.527343749999999  C 6.562625050020008 5.4231770833333295  6.5434173669467794 5.25716145833333  6.492196878751501 5.029296874999999  C 6.440976390556223 4.801432291666664  6.428171268507404 4.62890625  6.453781512605042 4.51171875  C 6.4793917567026815 4.40755208333333  6.53701480592237 4.29036458333333  6.626650660264105 4.16015625  C 6.716286514605843 4.029947916666666  6.831532613045218 3.8802083333333304  6.9723889555822325 3.710937499999999  C 7.113245298119248 3.5416666666666643  7.222088835534214 3.404947916666665  7.298919567827131 3.300781249999999  C 7.401360544217688 3.144531250000001  7.507002801120449 2.945963541666666  7.615846338535414 2.705078125000001  C 7.72468987595038 2.4641927083333295  7.820728291316527 2.236328125000001  7.903961584633853 2.021484375  C 7.987194877951181 1.806640624999999  8.089635854341738 1.572265624999999  8.211284513805522 1.318359375  C 8.332933173269309 1.064453125000001  8.457783113245299 0.8561197916666652  8.585834333733493 0.6933593749999989  C 8.71388555422169 0.5305989583333293  8.883553421368548 0.3776041666666641  9.09483793517407 0.234375  C 9.306122448979593 0.09114583333332926  9.536614645858345 0.016276041666666297  9.786314525810324 0.00976562500000111  C 10.036014405762305 0.0032552083333292625  10.34013605442177 0.03906250000000111  10.698679471788715 0.1171875  L 10.679471788715487 0.17578125  C 11.166066426570628 0.05859375  11.492597038815527 0  11.65906362545018 0  L 26.27611044417767 0  C 27.22368947579032 0  27.95358143257303 0.3645833333333304  28.46578631452581 1.093750000000001  C 28.977991196478595 1.8229166666666652  29.09323729491797 2.6692708333333295  28.81152460984394 3.6328125  L 23.54861944777911 21.328125  C 23.087635054021607 22.877604166666664  22.629851940776312 23.876953125  22.175270108043218 24.326171875  C 21.720688275310128 24.775390625  20.897959183673468 25  19.707082833133253 25  L 3.015606242496999 25  C 2.6698679471788718 25  2.4265706282513007 25.09765625  2.2857142857142856 25.29296875  C 2.144857943177271 25.501302083333332  2.1384553821528614 25.78125  2.2665066026410563 26.1328125  C 2.573829531812725 27.044270833333336  3.495798319327731 27.5  5.032412965186074 27  L 22.76110444177671 27  C 23.13245298119248 27.5  23.490996398559425 27.399088541666664  23.836734693877553 27.197265625  C 24.182472989195677 26.995442708333332  24.40656262505002 26.725260416666664  24.509003601440575 26.38671875  L 30.271308523409363 7.109374999999999  C 30.360944377751103 6.822916666666664  30.39295718287315 6.451822916666665  30.367346938775512 5.996093749999999  Z M 11.466986794717887 5.625  L 11.063625450180073 6.874999999999999  C 11.012404961984794 7.04427083333333  11.025210084033613 7.19075520833333  11.10204081632653 7.314453124999999  C 11.178871548619448 7.438151041666664  11.306922769107645 7.5  11.486194477791116 8  L 23.164465786314526 8  C 23.33093237294918 7.5  23.49419767907163 7.438151041666664  23.654261704681872 7.314453124999999  C 23.81432573029212 7.19075520833333  23.91996798719488 7.04427083333333  23.971188475390157 6.874999999999999  L 24.37454981992797 5.625  C 24.42577030812325 5.455729166666665  24.41296518607443 5.309244791666665  24.33613445378151 5.185546875  C 24.259303721488596 5.061848958333331  24.131252501000404 4.999999999999999  23.951980792316927 5  L 12.273709483793517 5  C 12.107242897158864 4.999999999999999  11.943977591036415 5.061848958333331  11.78391356542617 5.185546875  C 11.623849539815927 5.309244791666665  11.518207282913167 5.455729166666665  11.466986794717887 5.625  Z M 9.872749099639856 10.624999999999998  L 9.46938775510204 11.875000000000002  C 9.418167266906764 12.044270833333332  9.430972388955583 12.190755208333332  9.5078031212485 12.314453125000002  C 9.584633853541417 12.438151041666666  9.712685074029611 12.499999999999998  9.891956782713086 13  L 21.570228091236494 13  C 21.73669467787115 12.499999999999998  21.8999599839936 12.438151041666666  22.06002400960384 12.314453125000002  C 22.22008803521409 12.190755208333332  22.325730292116848 12.044270833333332  22.376950780312125 11.875000000000002  L 22.78031212484994 10.624999999999998  C 22.83153261304522 10.455729166666664  22.818727490996398 10.309244791666664  22.741896758703483 10.185546874999998  C 22.665066026410564 10.061848958333334  22.53701480592237 10.000000000000002  22.357743097238895 10  L 10.679471788715487 10  C 10.513005202080834 10.000000000000002  10.349739895958384 10.061848958333334  10.18967587034814 10.185546874999998  C 10.029611844737897 10.309244791666664  9.923969587835135 10.455729166666664  9.872749099639856 10.624999999999998  Z " fill-rule="evenodd" />
    </mask>
  </defs>
  <g transform="matrix(1 0 0 1 -115 -567 )">
    <path d="M 30.367346938775512 5.996093749999999  C 30.853941576630657 6.191406250000001  31.23169267707083 6.471354166666664  31.500600240096038 6.835937500000001  C 32.01280512204882 7.578124999999999  32.128051220488196 8.417968750000002  31.846338535414166 9.355468750000002  L 26.56422569027611 27.05078125  C 26.320928371348543 27.884114583333336  25.831132452981194 28.583984375  25.09483793517407 29.150390625  C 24.35854341736695 29.716796875  23.574229691876752 30  22.741896758703483 30  L 5.013205282112845 30  C 4.0272108843537415 30  3.076430572228892 29.651692708333336  2.1608643457382954 28.955078125  C 1.2452981192476993 28.258463541666668  0.6082432973189277 27.40234375  0.24969987995198079 26.38671875  C -0.057623049219687875 25.514322916666664  -0.07042817126850741 24.6875  0.2112845138055222 23.90625  C 0.2112845138055222 23.854166666666664  0.2304921968787515 23.678385416666664  0.2689075630252101 23.37890625  C 0.30732292917166865 23.079427083333332  0.33293317326930777 22.838541666666668  0.3457382953181273 22.65625  C 0.3585434173669468 22.552083333333336  0.3393357342937175 22.412109375  0.28811524609843936 22.236328125  C 0.23689475790316128 22.060546875  0.217687074829932 21.933593750000004  0.2304921968787515 21.85546875  C 0.25610244097639057 21.712239583333332  0.30732292917166865 21.57552083333333  0.38415366146458585 21.4453125  C 0.460984393757503 21.315104166666664  0.5666266506602641 21.162109374999996  0.7010804321728692 20.986328124999996  C 0.8355342136854742 20.810546874999996  0.9411764705882353 20.657552083333332  1.0180072028811524 20.527343750000004  C 1.3125250100040018 20.03255208333333  1.600640256102441 19.43684895833333  1.8823529411764706 18.740234375000004  C 2.1640656262505003 18.043619791666668  2.356142456982793 17.447916666666664  2.458583433373349 16.953125000000004  C 2.4969987995198077 16.822916666666664  2.500200080032013 16.627604166666664  2.468187274909964 16.367187500000004  C 2.4361744697879155 16.106770833333336  2.4329731892757103 15.924479166666663  2.458583433373349 15.8203125  C 2.4969987995198077 15.677083333333332  2.6058423369347743 15.494791666666668  2.7851140456182475 15.273437499999998  C 2.9643857543017207 15.052083333333336  3.073229291716687 14.902343749999998  3.1116446578631454 14.82421875  C 3.3805522208883554 14.35546875  3.6494597839135654 13.756510416666666  3.9183673469387754 13.027343749999998  C 4.187274909963985 12.298177083333332  4.34733893557423 11.712239583333332  4.398559423769508 11.269531249999998  C 4.411364545818327 11.152343749999998  4.395358143257303 10.944010416666666  4.350540216086435 10.644531250000002  C 4.305722288915566 10.345052083333332  4.308923569427772 10.162760416666664  4.3601440576230495 10.097656249999998  C 4.411364545818327 9.928385416666664  4.552220888355342 9.729817708333329  4.782713085234094 9.501953125000002  C 5.013205282112845 9.274088541666666  5.15406162464986 9.127604166666666  5.205282112845138 9.062500000000002  C 5.44857943177271 8.723958333333332  5.720688275310125 8.173828125  6.021608643457383 7.412109375  C 6.322529011604642 6.650390625  6.498599439775911 6.022135416666666  6.549819927971188 5.527343749999999  C 6.562625050020008 5.4231770833333295  6.5434173669467794 5.25716145833333  6.492196878751501 5.029296874999999  C 6.440976390556223 4.801432291666664  6.428171268507404 4.62890625  6.453781512605042 4.51171875  C 6.4793917567026815 4.40755208333333  6.53701480592237 4.29036458333333  6.626650660264105 4.16015625  C 6.716286514605843 4.029947916666666  6.831532613045218 3.8802083333333304  6.9723889555822325 3.710937499999999  C 7.113245298119248 3.5416666666666643  7.222088835534214 3.404947916666665  7.298919567827131 3.300781249999999  C 7.401360544217688 3.144531250000001  7.507002801120449 2.945963541666666  7.615846338535414 2.705078125000001  C 7.72468987595038 2.4641927083333295  7.820728291316527 2.236328125000001  7.903961584633853 2.021484375  C 7.987194877951181 1.806640624999999  8.089635854341738 1.572265624999999  8.211284513805522 1.318359375  C 8.332933173269309 1.064453125000001  8.457783113245299 0.8561197916666652  8.585834333733493 0.6933593749999989  C 8.71388555422169 0.5305989583333293  8.883553421368548 0.3776041666666641  9.09483793517407 0.234375  C 9.306122448979593 0.09114583333332926  9.536614645858345 0.016276041666666297  9.786314525810324 0.00976562500000111  C 10.036014405762305 0.0032552083333292625  10.34013605442177 0.03906250000000111  10.698679471788715 0.1171875  L 10.679471788715487 0.17578125  C 11.166066426570628 0.05859375  11.492597038815527 0  11.65906362545018 0  L 26.27611044417767 0  C 27.22368947579032 0  27.95358143257303 0.3645833333333304  28.46578631452581 1.093750000000001  C 28.977991196478595 1.8229166666666652  29.09323729491797 2.6692708333333295  28.81152460984394 3.6328125  L 23.54861944777911 21.328125  C 23.087635054021607 22.877604166666664  22.629851940776312 23.876953125  22.175270108043218 24.326171875  C 21.720688275310128 24.775390625  20.897959183673468 25  19.707082833133253 25  L 3.015606242496999 25  C 2.6698679471788718 25  2.4265706282513007 25.09765625  2.2857142857142856 25.29296875  C 2.144857943177271 25.501302083333332  2.1384553821528614 25.78125  2.2665066026410563 26.1328125  C 2.573829531812725 27.044270833333336  3.495798319327731 27.5  5.032412965186074 27  L 22.76110444177671 27  C 23.13245298119248 27.5  23.490996398559425 27.399088541666664  23.836734693877553 27.197265625  C 24.182472989195677 26.995442708333332  24.40656262505002 26.725260416666664  24.509003601440575 26.38671875  L 30.271308523409363 7.109374999999999  C 30.360944377751103 6.822916666666664  30.39295718287315 6.451822916666665  30.367346938775512 5.996093749999999  Z M 11.466986794717887 5.625  L 11.063625450180073 6.874999999999999  C 11.012404961984794 7.04427083333333  11.025210084033613 7.19075520833333  11.10204081632653 7.314453124999999  C 11.178871548619448 7.438151041666664  11.306922769107645 7.5  11.486194477791116 8  L 23.164465786314526 8  C 23.33093237294918 7.5  23.49419767907163 7.438151041666664  23.654261704681872 7.314453124999999  C 23.81432573029212 7.19075520833333  23.91996798719488 7.04427083333333  23.971188475390157 6.874999999999999  L 24.37454981992797 5.625  C 24.42577030812325 5.455729166666665  24.41296518607443 5.309244791666665  24.33613445378151 5.185546875  C 24.259303721488596 5.061848958333331  24.131252501000404 4.999999999999999  23.951980792316927 5  L 12.273709483793517 5  C 12.107242897158864 4.999999999999999  11.943977591036415 5.061848958333331  11.78391356542617 5.185546875  C 11.623849539815927 5.309244791666665  11.518207282913167 5.455729166666665  11.466986794717887 5.625  Z M 9.872749099639856 10.624999999999998  L 9.46938775510204 11.875000000000002  C 9.418167266906764 12.044270833333332  9.430972388955583 12.190755208333332  9.5078031212485 12.314453125000002  C 9.584633853541417 12.438151041666666  9.712685074029611 12.499999999999998  9.891956782713086 13  L 21.570228091236494 13  C 21.73669467787115 12.499999999999998  21.8999599839936 12.438151041666666  22.06002400960384 12.314453125000002  C 22.22008803521409 12.190755208333332  22.325730292116848 12.044270833333332  22.376950780312125 11.875000000000002  L 22.78031212484994 10.624999999999998  C 22.83153261304522 10.455729166666664  22.818727490996398 10.309244791666664  22.741896758703483 10.185546874999998  C 22.665066026410564 10.061848958333334  22.53701480592237 10.000000000000002  22.357743097238895 10  L 10.679471788715487 10  C 10.513005202080834 10.000000000000002  10.349739895958384 10.061848958333334  10.18967587034814 10.185546874999998  C 10.029611844737897 10.309244791666664  9.923969587835135 10.455729166666664  9.872749099639856 10.624999999999998  Z " fill-rule="nonzero" fill="rgba(107, 153, 80, 1)" stroke="none" transform="matrix(1 0 0 1 115 567 )" class="fill" />
    <path d="M 30.367346938775512 5.996093749999999  C 30.853941576630657 6.191406250000001  31.23169267707083 6.471354166666664  31.500600240096038 6.835937500000001  C 32.01280512204882 7.578124999999999  32.128051220488196 8.417968750000002  31.846338535414166 9.355468750000002  L 26.56422569027611 27.05078125  C 26.320928371348543 27.884114583333336  25.831132452981194 28.583984375  25.09483793517407 29.150390625  C 24.35854341736695 29.716796875  23.574229691876752 30  22.741896758703483 30  L 5.013205282112845 30  C 4.0272108843537415 30  3.076430572228892 29.651692708333336  2.1608643457382954 28.955078125  C 1.2452981192476993 28.258463541666668  0.6082432973189277 27.40234375  0.24969987995198079 26.38671875  C -0.057623049219687875 25.514322916666664  -0.07042817126850741 24.6875  0.2112845138055222 23.90625  C 0.2112845138055222 23.854166666666664  0.2304921968787515 23.678385416666664  0.2689075630252101 23.37890625  C 0.30732292917166865 23.079427083333332  0.33293317326930777 22.838541666666668  0.3457382953181273 22.65625  C 0.3585434173669468 22.552083333333336  0.3393357342937175 22.412109375  0.28811524609843936 22.236328125  C 0.23689475790316128 22.060546875  0.217687074829932 21.933593750000004  0.2304921968787515 21.85546875  C 0.25610244097639057 21.712239583333332  0.30732292917166865 21.57552083333333  0.38415366146458585 21.4453125  C 0.460984393757503 21.315104166666664  0.5666266506602641 21.162109374999996  0.7010804321728692 20.986328124999996  C 0.8355342136854742 20.810546874999996  0.9411764705882353 20.657552083333332  1.0180072028811524 20.527343750000004  C 1.3125250100040018 20.03255208333333  1.600640256102441 19.43684895833333  1.8823529411764706 18.740234375000004  C 2.1640656262505003 18.043619791666668  2.356142456982793 17.447916666666664  2.458583433373349 16.953125000000004  C 2.4969987995198077 16.822916666666664  2.500200080032013 16.627604166666664  2.468187274909964 16.367187500000004  C 2.4361744697879155 16.106770833333336  2.4329731892757103 15.924479166666663  2.458583433373349 15.8203125  C 2.4969987995198077 15.677083333333332  2.6058423369347743 15.494791666666668  2.7851140456182475 15.273437499999998  C 2.9643857543017207 15.052083333333336  3.073229291716687 14.902343749999998  3.1116446578631454 14.82421875  C 3.3805522208883554 14.35546875  3.6494597839135654 13.756510416666666  3.9183673469387754 13.027343749999998  C 4.187274909963985 12.298177083333332  4.34733893557423 11.712239583333332  4.398559423769508 11.269531249999998  C 4.411364545818327 11.152343749999998  4.395358143257303 10.944010416666666  4.350540216086435 10.644531250000002  C 4.305722288915566 10.345052083333332  4.308923569427772 10.162760416666664  4.3601440576230495 10.097656249999998  C 4.411364545818327 9.928385416666664  4.552220888355342 9.729817708333329  4.782713085234094 9.501953125000002  C 5.013205282112845 9.274088541666666  5.15406162464986 9.127604166666666  5.205282112845138 9.062500000000002  C 5.44857943177271 8.723958333333332  5.720688275310125 8.173828125  6.021608643457383 7.412109375  C 6.322529011604642 6.650390625  6.498599439775911 6.022135416666666  6.549819927971188 5.527343749999999  C 6.562625050020008 5.4231770833333295  6.5434173669467794 5.25716145833333  6.492196878751501 5.029296874999999  C 6.440976390556223 4.801432291666664  6.428171268507404 4.62890625  6.453781512605042 4.51171875  C 6.4793917567026815 4.40755208333333  6.53701480592237 4.29036458333333  6.626650660264105 4.16015625  C 6.716286514605843 4.029947916666666  6.831532613045218 3.8802083333333304  6.9723889555822325 3.710937499999999  C 7.113245298119248 3.5416666666666643  7.222088835534214 3.404947916666665  7.298919567827131 3.300781249999999  C 7.401360544217688 3.144531250000001  7.507002801120449 2.945963541666666  7.615846338535414 2.705078125000001  C 7.72468987595038 2.4641927083333295  7.820728291316527 2.236328125000001  7.903961584633853 2.021484375  C 7.987194877951181 1.806640624999999  8.089635854341738 1.572265624999999  8.211284513805522 1.318359375  C 8.332933173269309 1.064453125000001  8.457783113245299 0.8561197916666652  8.585834333733493 0.6933593749999989  C 8.71388555422169 0.5305989583333293  8.883553421368548 0.3776041666666641  9.09483793517407 0.234375  C 9.306122448979593 0.09114583333332926  9.536614645858345 0.016276041666666297  9.786314525810324 0.00976562500000111  C 10.036014405762305 0.0032552083333292625  10.34013605442177 0.03906250000000111  10.698679471788715 0.1171875  L 10.679471788715487 0.17578125  C 11.166066426570628 0.05859375  11.492597038815527 0  11.65906362545018 0  L 26.27611044417767 0  C 27.22368947579032 0  27.95358143257303 0.3645833333333304  28.46578631452581 1.093750000000001  C 28.977991196478595 1.8229166666666652  29.09323729491797 2.6692708333333295  28.81152460984394 3.6328125  L 23.54861944777911 21.328125  C 23.087635054021607 22.877604166666664  22.629851940776312 23.876953125  22.175270108043218 24.326171875  C 21.720688275310128 24.775390625  20.897959183673468 25  19.707082833133253 25  L 3.015606242496999 25  C 2.6698679471788718 25  2.4265706282513007 25.09765625  2.2857142857142856 25.29296875  C 2.144857943177271 25.501302083333332  2.1384553821528614 25.78125  2.2665066026410563 26.1328125  C 2.573829531812725 27.044270833333336  3.495798319327731 27.5  5.032412965186074 27  L 22.76110444177671 27  C 23.13245298119248 27.5  23.490996398559425 27.399088541666664  23.836734693877553 27.197265625  C 24.182472989195677 26.995442708333332  24.40656262505002 26.725260416666664  24.509003601440575 26.38671875  L 30.271308523409363 7.109374999999999  C 30.360944377751103 6.822916666666664  30.39295718287315 6.451822916666665  30.367346938775512 5.996093749999999  Z " stroke-width="0" stroke-dasharray="0" stroke="rgba(255, 255, 255, 0)" fill="none" transform="matrix(1 0 0 1 115 567 )" class="stroke" mask="url(#Clip14)" />
    <path d="M 11.466986794717887 5.625  L 11.063625450180073 6.874999999999999  C 11.012404961984794 7.04427083333333  11.025210084033613 7.19075520833333  11.10204081632653 7.314453124999999  C 11.178871548619448 7.438151041666664  11.306922769107645 7.5  11.486194477791116 8  L 23.164465786314526 8  C 23.33093237294918 7.5  23.49419767907163 7.438151041666664  23.654261704681872 7.314453124999999  C 23.81432573029212 7.19075520833333  23.91996798719488 7.04427083333333  23.971188475390157 6.874999999999999  L 24.37454981992797 5.625  C 24.42577030812325 5.455729166666665  24.41296518607443 5.309244791666665  24.33613445378151 5.185546875  C 24.259303721488596 5.061848958333331  24.131252501000404 4.999999999999999  23.951980792316927 5  L 12.273709483793517 5  C 12.107242897158864 4.999999999999999  11.943977591036415 5.061848958333331  11.78391356542617 5.185546875  C 11.623849539815927 5.309244791666665  11.518207282913167 5.455729166666665  11.466986794717887 5.625  Z " stroke-width="0" stroke-dasharray="0" stroke="rgba(255, 255, 255, 0)" fill="none" transform="matrix(1 0 0 1 115 567 )" class="stroke" mask="url(#Clip14)" />
    <path d="M 9.872749099639856 10.624999999999998  L 9.46938775510204 11.875000000000002  C 9.418167266906764 12.044270833333332  9.430972388955583 12.190755208333332  9.5078031212485 12.314453125000002  C 9.584633853541417 12.438151041666666  9.712685074029611 12.499999999999998  9.891956782713086 13  L 21.570228091236494 13  C 21.73669467787115 12.499999999999998  21.8999599839936 12.438151041666666  22.06002400960384 12.314453125000002  C 22.22008803521409 12.190755208333332  22.325730292116848 12.044270833333332  22.376950780312125 11.875000000000002  L 22.78031212484994 10.624999999999998  C 22.83153261304522 10.455729166666664  22.818727490996398 10.309244791666664  22.741896758703483 10.185546874999998  C 22.665066026410564 10.061848958333334  22.53701480592237 10.000000000000002  22.357743097238895 10  L 10.679471788715487 10  C 10.513005202080834 10.000000000000002  10.349739895958384 10.061848958333334  10.18967587034814 10.185546874999998  C 10.029611844737897 10.309244791666664  9.923969587835135 10.455729166666664  9.872749099639856 10.624999999999998  Z " stroke-width="0" stroke-dasharray="0" stroke="rgba(255, 255, 255, 0)" fill="none" transform="matrix(1 0 0 1 115 567 )" class="stroke" mask="url(#Clip14)" />
  </g>
</svg>