<?xml version="1.0" encoding="utf-8"?>
<svg version="1.1" xmlns:xlink="http://www.w3.org/1999/xlink" width="33px" height="33px" xmlns="http://www.w3.org/2000/svg">
  <defs>
    <pattern id="BGPattern" patternUnits="userSpaceOnUse" alignment="0 0" imageRepeat="None" />
    <mask fill="white" id="Clip1">
      <path d="M 20.388671875 20.388671875000004  C 21.462890625 19.314453124999996  22 18.018229166666664  22 16.5  C 22 14.98177083333333  21.462890625 13.685546874999998  20.388671875 12.611328125000002  C 19.314453125 11.537109375  18.018229166666668 11.000000000000002  16.5 11.000000000000002  C 14.981770833333334 11.000000000000002  13.685546875 11.537109375  12.611328125 12.611328125000002  C 11.537109375 13.685546874999998  11 14.98177083333333  11 16.5  C 11 18.018229166666664  11.537109375 19.314453124999996  12.611328125 20.388671875000004  C 13.685546875 21.462890625  14.981770833333334 22.000000000000004  16.5 22.000000000000004  C 18.018229166666668 22.000000000000004  19.314453125 21.462890625  20.388671875 20.388671875000004  Z M 22.494140625 10.505859375  C 24.141276041666668 12.152994791666663  24.96484375 14.151041666666663  24.96484375 16.5  C 24.96484375 18.848958333333336  24.141276041666668 20.847005208333336  22.494140625 22.494140625  C 20.847005208333336 24.141276041666664  18.848958333333336 24.96484375  16.5 24.96484375  C 14.151041666666668 24.96484375  12.152994791666668 24.141276041666664  10.505859375 22.494140625  C 8.858723958333334 20.847005208333336  8.03515625 18.848958333333336  8.03515625 16.5  C 8.03515625 14.151041666666663  8.858723958333334 12.152994791666663  10.505859375 10.505859375  C 12.152994791666668 8.85872395833333  14.151041666666668 8.035156250000002  16.5 8.035156250000002  C 18.848958333333336 8.035156250000002  20.847005208333336 8.85872395833333  22.494140625 10.505859375  Z M 26.705078125 6.294921875000001  C 27.091796875 6.681640625000001  27.28515625 7.147135416666664  27.28515625 7.691406249999999  C 27.28515625 8.235677083333332  27.091796875 8.701171875  26.705078125 9.087890625  C 26.318359375 9.474609375  25.852864583333336 9.66796875  25.30859375 9.66796875  C 24.764322916666668 9.66796875  24.298828125 9.474609375  23.912109375 9.087890625  C 23.525390625 8.701171875  23.33203125 8.235677083333332  23.33203125 7.691406249999999  C 23.33203125 7.147135416666664  23.525390625 6.681640625000001  23.912109375 6.294921875000001  C 24.298828125 5.908203125000001  24.764322916666668 5.714843750000001  25.30859375 5.714843750000001  C 25.852864583333336 5.714843750000001  26.318359375 5.908203125000001  26.705078125 6.294921875000001  Z M 18.1435546875 2.9541015624999987  C 17.148111979166668 2.9612630208333304  16.600260416666668 2.96484375  16.5 2.96484375  C 16.399739583333336 2.96484375  15.851888020833334 2.9612630208333304  14.8564453125 2.9541015624999987  C 13.861002604166668 2.9469401041666634  13.10546875 2.9469401041666634  12.58984375 2.9541015624999987  C 12.07421875 2.9612630208333304  11.383138020833334 2.982747395833333  10.5166015625 3.0185546874999987  C 9.65006510416667 3.0543619791666647  8.912434895833334 3.1259765625  8.3037109375 3.2333984375000013  C 7.694986979166667 3.3408203124999987  7.182942708333334 3.4733072916666647  6.767578125 3.6308593749999987  C 6.051432291666667 3.917317708333333  5.421223958333334 4.332682291666663  4.876953125 4.876953125000001  C 4.332682291666667 5.421223958333332  3.9173177083333335 6.051432291666664  3.630859375 6.767578125  C 3.473307291666667 7.18294270833333  3.3408203125 7.694986979166664  3.2333984375 8.303710937499998  C 3.1259765625 8.912434895833332  3.054361979166667 9.650065104166664  3.0185546875 10.516601562500002  C 2.9827473958333335 11.383138020833332  2.9612630208333335 12.074218749999998  2.9541015625 12.589843749999998  C 2.946940104166667 13.105468749999998  2.946940104166667 13.861002604166663  2.9541015625 14.8564453125  C 2.9612630208333335 15.85188802083333  2.96484375 16.399739583333332  2.96484375 16.5  C 2.96484375 16.600260416666664  2.9612630208333335 17.148111979166664  2.9541015625 18.1435546875  C 2.946940104166667 19.138997395833336  2.946940104166667 19.894531249999996  2.9541015625 20.410156249999996  C 2.9612630208333335 20.925781249999996  2.9827473958333335 21.61686197916666  3.0185546875 22.483398437500004  C 3.054361979166667 23.34993489583333  3.1259765625 24.087565104166664  3.2333984375 24.696289062499996  C 3.3408203125 25.305013020833332  3.473307291666667 25.81705729166666  3.630859375 26.232421875  C 3.9173177083333335 26.948567708333332  4.332682291666667 27.578776041666668  4.876953125 28.123046875  C 5.421223958333334 28.667317708333332  6.051432291666667 29.082682291666668  6.767578125 29.369140625  C 7.182942708333334 29.526692708333332  7.694986979166667 29.6591796875  8.3037109375 29.7666015625  C 8.912434895833334 29.8740234375  9.65006510416667 29.945638020833332  10.5166015625 29.9814453125  C 11.383138020833334 30.017252604166668  12.07421875 30.038736979166668  12.58984375 30.0458984375  C 13.10546875 30.053059895833332  13.861002604166668 30.053059895833332  14.8564453125 30.0458984375  C 15.851888020833334 30.038736979166668  16.399739583333336 30.03515625  16.5 30.03515625  C 16.600260416666668 30.03515625  17.148111979166668 30.038736979166668  18.1435546875 30.0458984375  C 19.138997395833336 30.053059895833332  19.89453125 30.053059895833332  20.41015625 30.0458984375  C 20.92578125 30.038736979166668  21.616861979166668 30.017252604166668  22.4833984375 29.9814453125  C 23.349934895833336 29.945638020833332  24.087565104166668 29.8740234375  24.6962890625 29.7666015625  C 25.305013020833336 29.6591796875  25.817057291666668 29.526692708333332  26.232421875 29.369140625  C 26.948567708333336 29.082682291666668  27.578776041666668 28.667317708333332  28.123046875 28.123046875  C 28.667317708333336 27.578776041666668  29.082682291666668 26.948567708333332  29.369140625 26.232421875  C 29.526692708333336 25.81705729166666  29.6591796875 25.305013020833332  29.7666015625 24.696289062499996  C 29.8740234375 24.087565104166664  29.945638020833336 23.34993489583333  29.9814453125 22.483398437500004  C 30.017252604166668 21.61686197916666  30.038736979166668 20.925781249999996  30.0458984375 20.410156249999996  C 30.053059895833336 19.894531249999996  30.053059895833336 19.138997395833336  30.0458984375 18.1435546875  C 30.038736979166668 17.148111979166664  30.03515625 16.600260416666664  30.03515625 16.5  C 30.03515625 16.399739583333332  30.038736979166668 15.85188802083333  30.0458984375 14.8564453125  C 30.053059895833336 13.861002604166663  30.053059895833336 13.105468749999998  30.0458984375 12.589843749999998  C 30.038736979166668 12.074218749999998  30.017252604166668 11.383138020833332  29.9814453125 10.516601562500002  C 29.945638020833336 9.650065104166664  29.8740234375 8.912434895833332  29.7666015625 8.303710937499998  C 29.6591796875 7.694986979166664  29.526692708333336 7.18294270833333  29.369140625 6.767578125  C 29.082682291666668 6.051432291666664  28.667317708333336 5.421223958333332  28.123046875 4.876953125000001  C 27.578776041666668 4.332682291666663  26.948567708333336 3.917317708333333  26.232421875 3.6308593749999987  C 25.817057291666668 3.4733072916666647  25.305013020833336 3.3408203124999987  24.6962890625 3.2333984375000013  C 24.087565104166668 3.1259765625  23.349934895833336 3.0543619791666647  22.4833984375 3.0185546874999987  C 21.616861979166668 2.982747395833333  20.92578125 2.9612630208333304  20.41015625 2.9541015624999987  C 19.89453125 2.9469401041666634  19.138997395833336 2.9469401041666634  18.1435546875 2.9541015624999987  Z M 32.892578125 9.689453124999998  C 32.96419270833333 10.949869791666664  33 13.220052083333332  33 16.5  C 33 19.779947916666668  32.96419270833333 22.050130208333332  32.892578125 23.310546874999996  C 32.749348958333336 26.289713541666668  31.861328125 28.595703125  30.228515625 30.228515625  C 28.595703125 31.861328125  26.289713541666668 32.74934895833333  23.310546875 32.892578125  C 22.050130208333336 32.96419270833333  19.779947916666668 33  16.5 33  C 13.220052083333334 33  10.949869791666666 32.96419270833333  9.689453125 32.892578125  C 6.710286458333335 32.74934895833333  4.404296875000001 31.861328125  2.771484375 30.228515625  C 1.138671875 28.595703125  0.2506510416666667 26.289713541666668  0.107421875 23.310546874999996  C 0.035807291666666664 22.050130208333332  0 19.779947916666668  0 16.5  C 0 13.220052083333332  0.035807291666666664 10.949869791666664  0.107421875 9.689453124999998  C 0.2506510416666667 6.710286458333332  1.138671875 4.404296874999999  2.771484375 2.771484375  C 4.404296875000001 1.1386718750000013  6.710286458333335 0.25065104166666463  9.689453125 0.10742187500000122  C 10.949869791666666 0.03580729166666219  13.220052083333334 0  16.5 0  C 19.779947916666668 0  22.050130208333336 0.03580729166666219  23.310546875 0.10742187500000122  C 26.289713541666668 0.25065104166666463  28.595703125 1.1386718750000013  30.228515625 2.771484375  C 31.861328125 4.404296874999999  32.749348958333336 6.710286458333332  32.892578125 9.689453124999998  Z " fill-rule="evenodd" />
    </mask>
  </defs>
  <g transform="matrix(1 0 0 1 -128 -1903 )">
    <path d="M 20.388671875 20.388671875000004  C 21.462890625 19.314453124999996  22 18.018229166666664  22 16.5  C 22 14.98177083333333  21.462890625 13.685546874999998  20.388671875 12.611328125000002  C 19.314453125 11.537109375  18.018229166666668 11.000000000000002  16.5 11.000000000000002  C 14.981770833333334 11.000000000000002  13.685546875 11.537109375  12.611328125 12.611328125000002  C 11.537109375 13.685546874999998  11 14.98177083333333  11 16.5  C 11 18.018229166666664  11.537109375 19.314453124999996  12.611328125 20.388671875000004  C 13.685546875 21.462890625  14.981770833333334 22.000000000000004  16.5 22.000000000000004  C 18.018229166666668 22.000000000000004  19.314453125 21.462890625  20.388671875 20.388671875000004  Z M 22.494140625 10.505859375  C 24.141276041666668 12.152994791666663  24.96484375 14.151041666666663  24.96484375 16.5  C 24.96484375 18.848958333333336  24.141276041666668 20.847005208333336  22.494140625 22.494140625  C 20.847005208333336 24.141276041666664  18.848958333333336 24.96484375  16.5 24.96484375  C 14.151041666666668 24.96484375  12.152994791666668 24.141276041666664  10.505859375 22.494140625  C 8.858723958333334 20.847005208333336  8.03515625 18.848958333333336  8.03515625 16.5  C 8.03515625 14.151041666666663  8.858723958333334 12.152994791666663  10.505859375 10.505859375  C 12.152994791666668 8.85872395833333  14.151041666666668 8.035156250000002  16.5 8.035156250000002  C 18.848958333333336 8.035156250000002  20.847005208333336 8.85872395833333  22.494140625 10.505859375  Z M 26.705078125 6.294921875000001  C 27.091796875 6.681640625000001  27.28515625 7.147135416666664  27.28515625 7.691406249999999  C 27.28515625 8.235677083333332  27.091796875 8.701171875  26.705078125 9.087890625  C 26.318359375 9.474609375  25.852864583333336 9.66796875  25.30859375 9.66796875  C 24.764322916666668 9.66796875  24.298828125 9.474609375  23.912109375 9.087890625  C 23.525390625 8.701171875  23.33203125 8.235677083333332  23.33203125 7.691406249999999  C 23.33203125 7.147135416666664  23.525390625 6.681640625000001  23.912109375 6.294921875000001  C 24.298828125 5.908203125000001  24.764322916666668 5.714843750000001  25.30859375 5.714843750000001  C 25.852864583333336 5.714843750000001  26.318359375 5.908203125000001  26.705078125 6.294921875000001  Z M 18.1435546875 2.9541015624999987  C 17.148111979166668 2.9612630208333304  16.600260416666668 2.96484375  16.5 2.96484375  C 16.399739583333336 2.96484375  15.851888020833334 2.9612630208333304  14.8564453125 2.9541015624999987  C 13.861002604166668 2.9469401041666634  13.10546875 2.9469401041666634  12.58984375 2.9541015624999987  C 12.07421875 2.9612630208333304  11.383138020833334 2.982747395833333  10.5166015625 3.0185546874999987  C 9.65006510416667 3.0543619791666647  8.912434895833334 3.1259765625  8.3037109375 3.2333984375000013  C 7.694986979166667 3.3408203124999987  7.182942708333334 3.4733072916666647  6.767578125 3.6308593749999987  C 6.051432291666667 3.917317708333333  5.421223958333334 4.332682291666663  4.876953125 4.876953125000001  C 4.332682291666667 5.421223958333332  3.9173177083333335 6.051432291666664  3.630859375 6.767578125  C 3.473307291666667 7.18294270833333  3.3408203125 7.694986979166664  3.2333984375 8.303710937499998  C 3.1259765625 8.912434895833332  3.054361979166667 9.650065104166664  3.0185546875 10.516601562500002  C 2.9827473958333335 11.383138020833332  2.9612630208333335 12.074218749999998  2.9541015625 12.589843749999998  C 2.946940104166667 13.105468749999998  2.946940104166667 13.861002604166663  2.9541015625 14.8564453125  C 2.9612630208333335 15.85188802083333  2.96484375 16.399739583333332  2.96484375 16.5  C 2.96484375 16.600260416666664  2.9612630208333335 17.148111979166664  2.9541015625 18.1435546875  C 2.946940104166667 19.138997395833336  2.946940104166667 19.894531249999996  2.9541015625 20.410156249999996  C 2.9612630208333335 20.925781249999996  2.9827473958333335 21.61686197916666  3.0185546875 22.483398437500004  C 3.054361979166667 23.34993489583333  3.1259765625 24.087565104166664  3.2333984375 24.696289062499996  C 3.3408203125 25.305013020833332  3.473307291666667 25.81705729166666  3.630859375 26.232421875  C 3.9173177083333335 26.948567708333332  4.332682291666667 27.578776041666668  4.876953125 28.123046875  C 5.421223958333334 28.667317708333332  6.051432291666667 29.082682291666668  6.767578125 29.369140625  C 7.182942708333334 29.526692708333332  7.694986979166667 29.6591796875  8.3037109375 29.7666015625  C 8.912434895833334 29.8740234375  9.65006510416667 29.945638020833332  10.5166015625 29.9814453125  C 11.383138020833334 30.017252604166668  12.07421875 30.038736979166668  12.58984375 30.0458984375  C 13.10546875 30.053059895833332  13.861002604166668 30.053059895833332  14.8564453125 30.0458984375  C 15.851888020833334 30.038736979166668  16.399739583333336 30.03515625  16.5 30.03515625  C 16.600260416666668 30.03515625  17.148111979166668 30.038736979166668  18.1435546875 30.0458984375  C 19.138997395833336 30.053059895833332  19.89453125 30.053059895833332  20.41015625 30.0458984375  C 20.92578125 30.038736979166668  21.616861979166668 30.017252604166668  22.4833984375 29.9814453125  C 23.349934895833336 29.945638020833332  24.087565104166668 29.8740234375  24.6962890625 29.7666015625  C 25.305013020833336 29.6591796875  25.817057291666668 29.526692708333332  26.232421875 29.369140625  C 26.948567708333336 29.082682291666668  27.578776041666668 28.667317708333332  28.123046875 28.123046875  C 28.667317708333336 27.578776041666668  29.082682291666668 26.948567708333332  29.369140625 26.232421875  C 29.526692708333336 25.81705729166666  29.6591796875 25.305013020833332  29.7666015625 24.696289062499996  C 29.8740234375 24.087565104166664  29.945638020833336 23.34993489583333  29.9814453125 22.483398437500004  C 30.017252604166668 21.61686197916666  30.038736979166668 20.925781249999996  30.0458984375 20.410156249999996  C 30.053059895833336 19.894531249999996  30.053059895833336 19.138997395833336  30.0458984375 18.1435546875  C 30.038736979166668 17.148111979166664  30.03515625 16.600260416666664  30.03515625 16.5  C 30.03515625 16.399739583333332  30.038736979166668 15.85188802083333  30.0458984375 14.8564453125  C 30.053059895833336 13.861002604166663  30.053059895833336 13.105468749999998  30.0458984375 12.589843749999998  C 30.038736979166668 12.074218749999998  30.017252604166668 11.383138020833332  29.9814453125 10.516601562500002  C 29.945638020833336 9.650065104166664  29.8740234375 8.912434895833332  29.7666015625 8.303710937499998  C 29.6591796875 7.694986979166664  29.526692708333336 7.18294270833333  29.369140625 6.767578125  C 29.082682291666668 6.051432291666664  28.667317708333336 5.421223958333332  28.123046875 4.876953125000001  C 27.578776041666668 4.332682291666663  26.948567708333336 3.917317708333333  26.232421875 3.6308593749999987  C 25.817057291666668 3.4733072916666647  25.305013020833336 3.3408203124999987  24.6962890625 3.2333984375000013  C 24.087565104166668 3.1259765625  23.349934895833336 3.0543619791666647  22.4833984375 3.0185546874999987  C 21.616861979166668 2.982747395833333  20.92578125 2.9612630208333304  20.41015625 2.9541015624999987  C 19.89453125 2.9469401041666634  19.138997395833336 2.9469401041666634  18.1435546875 2.9541015624999987  Z M 32.892578125 9.689453124999998  C 32.96419270833333 10.949869791666664  33 13.220052083333332  33 16.5  C 33 19.779947916666668  32.96419270833333 22.050130208333332  32.892578125 23.310546874999996  C 32.749348958333336 26.289713541666668  31.861328125 28.595703125  30.228515625 30.228515625  C 28.595703125 31.861328125  26.289713541666668 32.74934895833333  23.310546875 32.892578125  C 22.050130208333336 32.96419270833333  19.779947916666668 33  16.5 33  C 13.220052083333334 33  10.949869791666666 32.96419270833333  9.689453125 32.892578125  C 6.710286458333335 32.74934895833333  4.404296875000001 31.861328125  2.771484375 30.228515625  C 1.138671875 28.595703125  0.2506510416666667 26.289713541666668  0.107421875 23.310546874999996  C 0.035807291666666664 22.050130208333332  0 19.779947916666668  0 16.5  C 0 13.220052083333332  0.035807291666666664 10.949869791666664  0.107421875 9.689453124999998  C 0.2506510416666667 6.710286458333332  1.138671875 4.404296874999999  2.771484375 2.771484375  C 4.404296875000001 1.1386718750000013  6.710286458333335 0.25065104166666463  9.689453125 0.10742187500000122  C 10.949869791666666 0.03580729166666219  13.220052083333334 0  16.5 0  C 19.779947916666668 0  22.050130208333336 0.03580729166666219  23.310546875 0.10742187500000122  C 26.289713541666668 0.25065104166666463  28.595703125 1.1386718750000013  30.228515625 2.771484375  C 31.861328125 4.404296874999999  32.749348958333336 6.710286458333332  32.892578125 9.689453124999998  Z " fill-rule="nonzero" fill="rgba(56, 102, 65, 1)" stroke="none" transform="matrix(1 0 0 1 128 1903 )" class="fill" />
    <path d="M 20.388671875 20.388671875000004  C 21.462890625 19.314453124999996  22 18.018229166666664  22 16.5  C 22 14.98177083333333  21.462890625 13.685546874999998  20.388671875 12.611328125000002  C 19.314453125 11.537109375  18.018229166666668 11.000000000000002  16.5 11.000000000000002  C 14.981770833333334 11.000000000000002  13.685546875 11.537109375  12.611328125 12.611328125000002  C 11.537109375 13.685546874999998  11 14.98177083333333  11 16.5  C 11 18.018229166666664  11.537109375 19.314453124999996  12.611328125 20.388671875000004  C 13.685546875 21.462890625  14.981770833333334 22.000000000000004  16.5 22.000000000000004  C 18.018229166666668 22.000000000000004  19.314453125 21.462890625  20.388671875 20.388671875000004  Z " stroke-width="0" stroke-dasharray="0" stroke="rgba(255, 255, 255, 0)" fill="none" transform="matrix(1 0 0 1 128 1903 )" class="stroke" mask="url(#Clip1)" />
    <path d="M 22.494140625 10.505859375  C 24.141276041666668 12.152994791666663  24.96484375 14.151041666666663  24.96484375 16.5  C 24.96484375 18.848958333333336  24.141276041666668 20.847005208333336  22.494140625 22.494140625  C 20.847005208333336 24.141276041666664  18.848958333333336 24.96484375  16.5 24.96484375  C 14.151041666666668 24.96484375  12.152994791666668 24.141276041666664  10.505859375 22.494140625  C 8.858723958333334 20.847005208333336  8.03515625 18.848958333333336  8.03515625 16.5  C 8.03515625 14.151041666666663  8.858723958333334 12.152994791666663  10.505859375 10.505859375  C 12.152994791666668 8.85872395833333  14.151041666666668 8.035156250000002  16.5 8.035156250000002  C 18.848958333333336 8.035156250000002  20.847005208333336 8.85872395833333  22.494140625 10.505859375  Z " stroke-width="0" stroke-dasharray="0" stroke="rgba(255, 255, 255, 0)" fill="none" transform="matrix(1 0 0 1 128 1903 )" class="stroke" mask="url(#Clip1)" />
    <path d="M 26.705078125 6.294921875000001  C 27.091796875 6.681640625000001  27.28515625 7.147135416666664  27.28515625 7.691406249999999  C 27.28515625 8.235677083333332  27.091796875 8.701171875  26.705078125 9.087890625  C 26.318359375 9.474609375  25.852864583333336 9.66796875  25.30859375 9.66796875  C 24.764322916666668 9.66796875  24.298828125 9.474609375  23.912109375 9.087890625  C 23.525390625 8.701171875  23.33203125 8.235677083333332  23.33203125 7.691406249999999  C 23.33203125 7.147135416666664  23.525390625 6.681640625000001  23.912109375 6.294921875000001  C 24.298828125 5.908203125000001  24.764322916666668 5.714843750000001  25.30859375 5.714843750000001  C 25.852864583333336 5.714843750000001  26.318359375 5.908203125000001  26.705078125 6.294921875000001  Z " stroke-width="0" stroke-dasharray="0" stroke="rgba(255, 255, 255, 0)" fill="none" transform="matrix(1 0 0 1 128 1903 )" class="stroke" mask="url(#Clip1)" />
    <path d="M 18.1435546875 2.9541015624999987  C 17.148111979166668 2.9612630208333304  16.600260416666668 2.96484375  16.5 2.96484375  C 16.399739583333336 2.96484375  15.851888020833334 2.9612630208333304  14.8564453125 2.9541015624999987  C 13.861002604166668 2.9469401041666634  13.10546875 2.9469401041666634  12.58984375 2.9541015624999987  C 12.07421875 2.9612630208333304  11.383138020833334 2.982747395833333  10.5166015625 3.0185546874999987  C 9.65006510416667 3.0543619791666647  8.912434895833334 3.1259765625  8.3037109375 3.2333984375000013  C 7.694986979166667 3.3408203124999987  7.182942708333334 3.4733072916666647  6.767578125 3.6308593749999987  C 6.051432291666667 3.917317708333333  5.421223958333334 4.332682291666663  4.876953125 4.876953125000001  C 4.332682291666667 5.421223958333332  3.9173177083333335 6.051432291666664  3.630859375 6.767578125  C 3.473307291666667 7.18294270833333  3.3408203125 7.694986979166664  3.2333984375 8.303710937499998  C 3.1259765625 8.912434895833332  3.054361979166667 9.650065104166664  3.0185546875 10.516601562500002  C 2.9827473958333335 11.383138020833332  2.9612630208333335 12.074218749999998  2.9541015625 12.589843749999998  C 2.946940104166667 13.105468749999998  2.946940104166667 13.861002604166663  2.9541015625 14.8564453125  C 2.9612630208333335 15.85188802083333  2.96484375 16.399739583333332  2.96484375 16.5  C 2.96484375 16.600260416666664  2.9612630208333335 17.148111979166664  2.9541015625 18.1435546875  C 2.946940104166667 19.138997395833336  2.946940104166667 19.894531249999996  2.9541015625 20.410156249999996  C 2.9612630208333335 20.925781249999996  2.9827473958333335 21.61686197916666  3.0185546875 22.483398437500004  C 3.054361979166667 23.34993489583333  3.1259765625 24.087565104166664  3.2333984375 24.696289062499996  C 3.3408203125 25.305013020833332  3.473307291666667 25.81705729166666  3.630859375 26.232421875  C 3.9173177083333335 26.948567708333332  4.332682291666667 27.578776041666668  4.876953125 28.123046875  C 5.421223958333334 28.667317708333332  6.051432291666667 29.082682291666668  6.767578125 29.369140625  C 7.182942708333334 29.526692708333332  7.694986979166667 29.6591796875  8.3037109375 29.7666015625  C 8.912434895833334 29.8740234375  9.65006510416667 29.945638020833332  10.5166015625 29.9814453125  C 11.383138020833334 30.017252604166668  12.07421875 30.038736979166668  12.58984375 30.0458984375  C 13.10546875 30.053059895833332  13.861002604166668 30.053059895833332  14.8564453125 30.0458984375  C 15.851888020833334 30.038736979166668  16.399739583333336 30.03515625  16.5 30.03515625  C 16.600260416666668 30.03515625  17.148111979166668 30.038736979166668  18.1435546875 30.0458984375  C 19.138997395833336 30.053059895833332  19.89453125 30.053059895833332  20.41015625 30.0458984375  C 20.92578125 30.038736979166668  21.616861979166668 30.017252604166668  22.4833984375 29.9814453125  C 23.349934895833336 29.945638020833332  24.087565104166668 29.8740234375  24.6962890625 29.7666015625  C 25.305013020833336 29.6591796875  25.817057291666668 29.526692708333332  26.232421875 29.369140625  C 26.948567708333336 29.082682291666668  27.578776041666668 28.667317708333332  28.123046875 28.123046875  C 28.667317708333336 27.578776041666668  29.082682291666668 26.948567708333332  29.369140625 26.232421875  C 29.526692708333336 25.81705729166666  29.6591796875 25.305013020833332  29.7666015625 24.696289062499996  C 29.8740234375 24.087565104166664  29.945638020833336 23.34993489583333  29.9814453125 22.483398437500004  C 30.017252604166668 21.61686197916666  30.038736979166668 20.925781249999996  30.0458984375 20.410156249999996  C 30.053059895833336 19.894531249999996  30.053059895833336 19.138997395833336  30.0458984375 18.1435546875  C 30.038736979166668 17.148111979166664  30.03515625 16.600260416666664  30.03515625 16.5  C 30.03515625 16.399739583333332  30.038736979166668 15.85188802083333  30.0458984375 14.8564453125  C 30.053059895833336 13.861002604166663  30.053059895833336 13.105468749999998  30.0458984375 12.589843749999998  C 30.038736979166668 12.074218749999998  30.017252604166668 11.383138020833332  29.9814453125 10.516601562500002  C 29.945638020833336 9.650065104166664  29.8740234375 8.912434895833332  29.7666015625 8.303710937499998  C 29.6591796875 7.694986979166664  29.526692708333336 7.18294270833333  29.369140625 6.767578125  C 29.082682291666668 6.051432291666664  28.667317708333336 5.421223958333332  28.123046875 4.876953125000001  C 27.578776041666668 4.332682291666663  26.948567708333336 3.917317708333333  26.232421875 3.6308593749999987  C 25.817057291666668 3.4733072916666647  25.305013020833336 3.3408203124999987  24.6962890625 3.2333984375000013  C 24.087565104166668 3.1259765625  23.349934895833336 3.0543619791666647  22.4833984375 3.0185546874999987  C 21.616861979166668 2.982747395833333  20.92578125 2.9612630208333304  20.41015625 2.9541015624999987  C 19.89453125 2.9469401041666634  19.138997395833336 2.9469401041666634  18.1435546875 2.9541015624999987  Z " stroke-width="0" stroke-dasharray="0" stroke="rgba(255, 255, 255, 0)" fill="none" transform="matrix(1 0 0 1 128 1903 )" class="stroke" mask="url(#Clip1)" />
    <path d="M 32.892578125 9.689453124999998  C 32.96419270833333 10.949869791666664  33 13.220052083333332  33 16.5  C 33 19.779947916666668  32.96419270833333 22.050130208333332  32.892578125 23.310546874999996  C 32.749348958333336 26.289713541666668  31.861328125 28.595703125  30.228515625 30.228515625  C 28.595703125 31.861328125  26.289713541666668 32.74934895833333  23.310546875 32.892578125  C 22.050130208333336 32.96419270833333  19.779947916666668 33  16.5 33  C 13.220052083333334 33  10.949869791666666 32.96419270833333  9.689453125 32.892578125  C 6.710286458333335 32.74934895833333  4.404296875000001 31.861328125  2.771484375 30.228515625  C 1.138671875 28.595703125  0.2506510416666667 26.289713541666668  0.107421875 23.310546874999996  C 0.035807291666666664 22.050130208333332  0 19.779947916666668  0 16.5  C 0 13.220052083333332  0.035807291666666664 10.949869791666664  0.107421875 9.689453124999998  C 0.2506510416666667 6.710286458333332  1.138671875 4.404296874999999  2.771484375 2.771484375  C 4.404296875000001 1.1386718750000013  6.710286458333335 0.25065104166666463  9.689453125 0.10742187500000122  C 10.949869791666666 0.03580729166666219  13.220052083333334 0  16.5 0  C 19.779947916666668 0  22.050130208333336 0.03580729166666219  23.310546875 0.10742187500000122  C 26.289713541666668 0.25065104166666463  28.595703125 1.1386718750000013  30.228515625 2.771484375  C 31.861328125 4.404296874999999  32.749348958333336 6.710286458333332  32.892578125 9.689453124999998  Z " stroke-width="0" stroke-dasharray="0" stroke="rgba(255, 255, 255, 0)" fill="none" transform="matrix(1 0 0 1 128 1903 )" class="stroke" mask="url(#Clip1)" />
  </g>
</svg>