<?xml version="1.0" encoding="utf-8"?>
<svg version="1.1" xmlns:xlink="http://www.w3.org/1999/xlink" width="17px" height="27px" xmlns="http://www.w3.org/2000/svg">
  <defs>
    <pattern id="BGPattern" patternUnits="userSpaceOnUse" alignment="0 0" imageRepeat="None" />
    <mask fill="white" id="Clip5">
      <path d="M 11.5048828125 12.181640625  C 12.3349609375 11.302734374999998  12.75 10.2421875  12.75 9.000000000000002  C 12.75 7.757812499999998  12.3349609375 6.697265625  11.5048828125 5.818359374999999  C 10.6748046875 4.939453125000001  9.673177083333334 4.499999999999999  8.5 4.499999999999999  C 7.326822916666667 4.499999999999999  6.3251953125 4.939453125000001  5.4951171875 5.818359374999999  C 4.6650390625 6.697265625  4.25 7.757812499999998  4.25 9.000000000000002  C 4.25 10.2421875  4.6650390625 11.302734374999998  5.4951171875 12.181640625  C 6.3251953125 13.060546875000002  7.326822916666667 13.5  8.5 13.5  C 9.673177083333334 13.5  10.6748046875 13.060546875000002  11.5048828125 12.181640625  Z M 14.509765625 2.63671875  C 16.169921875 4.394531249999999  17 6.5156249999999964  17 9.000000000000002  C 17 10.277343749999998  16.8173828125 11.326171875  16.4521484375 12.146484374999998  L 10.4091796875 25.751953125  C 10.232096354166668 26.138671875  9.96923828125 26.443359374999996  9.62060546875 26.666015625  C 9.27197265625 26.888671875  8.8984375 27  8.5 27  C 8.1015625 27  7.72802734375 26.888671875  7.37939453125 26.666015625  C 7.03076171875 26.443359374999996  6.7734375 26.138671875  6.607421875 25.751953125  L 0.5478515625 12.146484374999998  C 0.1826171875 11.326171875  0 10.277343749999998  0 9.000000000000002  C 0 6.5156249999999964  0.830078125 4.394531249999999  2.490234375 2.63671875  C 4.150390625000001 0.878906250000001  6.153645833333334 0  8.5 0  C 10.846354166666668 0  12.849609375 0.878906250000001  14.509765625 2.63671875  Z " fill-rule="evenodd" />
    </mask>
  </defs>
  <g transform="matrix(1 0 0 1 -52 -2077 )">
    <path d="M 11.5048828125 12.181640625  C 12.3349609375 11.302734374999998  12.75 10.2421875  12.75 9.000000000000002  C 12.75 7.757812499999998  12.3349609375 6.697265625  11.5048828125 5.818359374999999  C 10.6748046875 4.939453125000001  9.673177083333334 4.499999999999999  8.5 4.499999999999999  C 7.326822916666667 4.499999999999999  6.3251953125 4.939453125000001  5.4951171875 5.818359374999999  C 4.6650390625 6.697265625  4.25 7.757812499999998  4.25 9.000000000000002  C 4.25 10.2421875  4.6650390625 11.302734374999998  5.4951171875 12.181640625  C 6.3251953125 13.060546875000002  7.326822916666667 13.5  8.5 13.5  C 9.673177083333334 13.5  10.6748046875 13.060546875000002  11.5048828125 12.181640625  Z M 14.509765625 2.63671875  C 16.169921875 4.394531249999999  17 6.5156249999999964  17 9.000000000000002  C 17 10.277343749999998  16.8173828125 11.326171875  16.4521484375 12.146484374999998  L 10.4091796875 25.751953125  C 10.232096354166668 26.138671875  9.96923828125 26.443359374999996  9.62060546875 26.666015625  C 9.27197265625 26.888671875  8.8984375 27  8.5 27  C 8.1015625 27  7.72802734375 26.888671875  7.37939453125 26.666015625  C 7.03076171875 26.443359374999996  6.7734375 26.138671875  6.607421875 25.751953125  L 0.5478515625 12.146484374999998  C 0.1826171875 11.326171875  0 10.277343749999998  0 9.000000000000002  C 0 6.5156249999999964  0.830078125 4.394531249999999  2.490234375 2.63671875  C 4.150390625000001 0.878906250000001  6.153645833333334 0  8.5 0  C 10.846354166666668 0  12.849609375 0.878906250000001  14.509765625 2.63671875  Z " fill-rule="nonzero" fill="rgba(56, 102, 65, 1)" stroke="none" transform="matrix(1 0 0 1 52 2077 )" class="fill" />
    <path d="M 11.5048828125 12.181640625  C 12.3349609375 11.302734374999998  12.75 10.2421875  12.75 9.000000000000002  C 12.75 7.757812499999998  12.3349609375 6.697265625  11.5048828125 5.818359374999999  C 10.6748046875 4.939453125000001  9.673177083333334 4.499999999999999  8.5 4.499999999999999  C 7.326822916666667 4.499999999999999  6.3251953125 4.939453125000001  5.4951171875 5.818359374999999  C 4.6650390625 6.697265625  4.25 7.757812499999998  4.25 9.000000000000002  C 4.25 10.2421875  4.6650390625 11.302734374999998  5.4951171875 12.181640625  C 6.3251953125 13.060546875000002  7.326822916666667 13.5  8.5 13.5  C 9.673177083333334 13.5  10.6748046875 13.060546875000002  11.5048828125 12.181640625  Z " stroke-width="0" stroke-dasharray="0" stroke="rgba(255, 255, 255, 0)" fill="none" transform="matrix(1 0 0 1 52 2077 )" class="stroke" mask="url(#Clip5)" />
    <path d="M 14.509765625 2.63671875  C 16.169921875 4.394531249999999  17 6.5156249999999964  17 9.000000000000002  C 17 10.277343749999998  16.8173828125 11.326171875  16.4521484375 12.146484374999998  L 10.4091796875 25.751953125  C 10.232096354166668 26.138671875  9.96923828125 26.443359374999996  9.62060546875 26.666015625  C 9.27197265625 26.888671875  8.8984375 27  8.5 27  C 8.1015625 27  7.72802734375 26.888671875  7.37939453125 26.666015625  C 7.03076171875 26.443359374999996  6.7734375 26.138671875  6.607421875 25.751953125  L 0.5478515625 12.146484374999998  C 0.1826171875 11.326171875  0 10.277343749999998  0 9.000000000000002  C 0 6.5156249999999964  0.830078125 4.394531249999999  2.490234375 2.63671875  C 4.150390625000001 0.878906250000001  6.153645833333334 0  8.5 0  C 10.846354166666668 0  12.849609375 0.878906250000001  14.509765625 2.63671875  Z " stroke-width="0" stroke-dasharray="0" stroke="rgba(255, 255, 255, 0)" fill="none" transform="matrix(1 0 0 1 52 2077 )" class="stroke" mask="url(#Clip5)" />
  </g>
</svg>