<?xml version="1.0" encoding="utf-8"?>
<svg version="1.1" xmlns:xlink="http://www.w3.org/1999/xlink" width="31px" height="31px" xmlns="http://www.w3.org/2000/svg">
  <defs>
    <pattern id="BGPattern" patternUnits="userSpaceOnUse" alignment="0 0" imageRepeat="None" />
    <mask fill="white" id="Clip6">
      <path d="M 5 11.947916666666666  L 5 25.954427083333336  L 10 25.954427083333336  L 10 11.947916666666666  L 5 11.947916666666666  Z M 9.021484375 9.3544921875  C 9.505859375000002 8.890299479166666  9.748046875000002 8.315104166666666  9.748046875 7.62890625  C 9.734592013888891 6.92925347222222  9.492404513888891 6.350694444444443  9.021484375 5.893229166666665  C 8.55056423611111 5.435763888888888  7.924913194444445 5.20703125  7.14453125 5.20703125  C 6.364149305555556 5.20703125  5.728407118055556 5.435763888888888  5.2373046875 5.893229166666665  C 4.7462022569444455 6.350694444444443  4.500651041666666 6.92925347222222  4.500651041666666 7.62890625  C 4.500651041666666 8.315104166666666  4.739474826388889 8.890299479166666  5.217122395833334 9.3544921875  C 5.694769965277778 9.818684895833334  6.317057291666666 10.05078125  7.083984375 10.05078125  L 7.104166666666666 10.05078125  C 7.898003472222223 10.05078125  8.537109375000002 9.818684895833334  9.021484375 9.3544921875  Z M 21.5546875 18.466796875  L 21.5546875 25.954427083333336  L 26.216796875 25.954427083333336  L 26.216796875 17.921875  C 26.216796875 15.849826388888886  25.725694444444446 14.282335069444443  24.743489583333336 13.219401041666666  C 23.761284722222225 12.15646701388889  22.462890625 11.625  20.848307291666664 11.625  C 19.018446180555557 11.625  17.612413194444446 12.412109375  16.630208333333336 13.986328125  L 16.670572916666664 13.986328125  L 16.670572916666664 11.947916666666666  L 12.008463541666668 11.947916666666666  C 12.048828125 12.8359375  12.048828125 17.504774305555554  12.008463541666668 25.954427083333336  L 16.670572916666664 25.954427083333336  L 16.670572916666664 18.123697916666668  C 16.670572916666664 17.612413194444446  16.717664930555557 17.235677083333332  16.811848958333336 16.993489583333332  C 17.013671875 16.522569444444446  17.31640625 16.122287326388886  17.720052083333336 15.79264322916667  C 18.123697916666664 15.462999131944443  18.621527777777782 15.298177083333334  19.213541666666664 15.298177083333334  C 20.774305555555557 15.298177083333334  21.5546875 16.354383680555554  21.5546875 18.466796875  Z M 29.294596354166664 1.7054036458333344  C 30.431532118055554 2.8423394097222197  31 4.211371527777773  31 5.8125  L 31 25.1875  C 31 26.788628472222218  30.431532118055554 28.157660590277782  29.294596354166664 29.294596354166664  C 28.157660590277782 30.431532118055554  26.788628472222225 31  25.1875 31  L 5.8125 31  C 4.211371527777778 31  2.8423394097222228 30.431532118055554  1.7054036458333335 29.294596354166664  C 0.5684678819444443 28.157660590277782  0 26.788628472222218  0 25.1875  L 0 5.8125  C 0 4.211371527777773  0.5684678819444443 2.8423394097222197  1.7054036458333335 1.7054036458333344  C 2.8423394097222228 0.5684678819444425  4.211371527777778 0  5.8125 0  L 25.1875 0  C 26.788628472222225 0  28.157660590277782 0.5684678819444425  29.294596354166664 1.7054036458333344  Z " fill-rule="evenodd" />
    </mask>
  </defs>
  <g transform="matrix(1 0 0 1 -270 -1904 )">
    <path d="M 5 11.947916666666666  L 5 25.954427083333336  L 10 25.954427083333336  L 10 11.947916666666666  L 5 11.947916666666666  Z M 9.021484375 9.3544921875  C 9.505859375000002 8.890299479166666  9.748046875000002 8.315104166666666  9.748046875 7.62890625  C 9.734592013888891 6.92925347222222  9.492404513888891 6.350694444444443  9.021484375 5.893229166666665  C 8.55056423611111 5.435763888888888  7.924913194444445 5.20703125  7.14453125 5.20703125  C 6.364149305555556 5.20703125  5.728407118055556 5.435763888888888  5.2373046875 5.893229166666665  C 4.7462022569444455 6.350694444444443  4.500651041666666 6.92925347222222  4.500651041666666 7.62890625  C 4.500651041666666 8.315104166666666  4.739474826388889 8.890299479166666  5.217122395833334 9.3544921875  C 5.694769965277778 9.818684895833334  6.317057291666666 10.05078125  7.083984375 10.05078125  L 7.104166666666666 10.05078125  C 7.898003472222223 10.05078125  8.537109375000002 9.818684895833334  9.021484375 9.3544921875  Z M 21.5546875 18.466796875  L 21.5546875 25.954427083333336  L 26.216796875 25.954427083333336  L 26.216796875 17.921875  C 26.216796875 15.849826388888886  25.725694444444446 14.282335069444443  24.743489583333336 13.219401041666666  C 23.761284722222225 12.15646701388889  22.462890625 11.625  20.848307291666664 11.625  C 19.018446180555557 11.625  17.612413194444446 12.412109375  16.630208333333336 13.986328125  L 16.670572916666664 13.986328125  L 16.670572916666664 11.947916666666666  L 12.008463541666668 11.947916666666666  C 12.048828125 12.8359375  12.048828125 17.504774305555554  12.008463541666668 25.954427083333336  L 16.670572916666664 25.954427083333336  L 16.670572916666664 18.123697916666668  C 16.670572916666664 17.612413194444446  16.717664930555557 17.235677083333332  16.811848958333336 16.993489583333332  C 17.013671875 16.522569444444446  17.31640625 16.122287326388886  17.720052083333336 15.79264322916667  C 18.123697916666664 15.462999131944443  18.621527777777782 15.298177083333334  19.213541666666664 15.298177083333334  C 20.774305555555557 15.298177083333334  21.5546875 16.354383680555554  21.5546875 18.466796875  Z M 29.294596354166664 1.7054036458333344  C 30.431532118055554 2.8423394097222197  31 4.211371527777773  31 5.8125  L 31 25.1875  C 31 26.788628472222218  30.431532118055554 28.157660590277782  29.294596354166664 29.294596354166664  C 28.157660590277782 30.431532118055554  26.788628472222225 31  25.1875 31  L 5.8125 31  C 4.211371527777778 31  2.8423394097222228 30.431532118055554  1.7054036458333335 29.294596354166664  C 0.5684678819444443 28.157660590277782  0 26.788628472222218  0 25.1875  L 0 5.8125  C 0 4.211371527777773  0.5684678819444443 2.8423394097222197  1.7054036458333335 1.7054036458333344  C 2.8423394097222228 0.5684678819444425  4.211371527777778 0  5.8125 0  L 25.1875 0  C 26.788628472222225 0  28.157660590277782 0.5684678819444425  29.294596354166664 1.7054036458333344  Z " fill-rule="nonzero" fill="rgba(56, 102, 65, 1)" stroke="none" transform="matrix(1 0 0 1 270 1904 )" class="fill" />
    <path d="M 5 11.947916666666666  L 5 25.954427083333336  L 10 25.954427083333336  L 10 11.947916666666666  L 5 11.947916666666666  Z " stroke-width="0" stroke-dasharray="0" stroke="rgba(255, 255, 255, 0)" fill="none" transform="matrix(1 0 0 1 270 1904 )" class="stroke" mask="url(#Clip6)" />
    <path d="M 9.021484375 9.3544921875  C 9.505859375000002 8.890299479166666  9.748046875000002 8.315104166666666  9.748046875 7.62890625  C 9.734592013888891 6.92925347222222  9.492404513888891 6.350694444444443  9.021484375 5.893229166666665  C 8.55056423611111 5.435763888888888  7.924913194444445 5.20703125  7.14453125 5.20703125  C 6.364149305555556 5.20703125  5.728407118055556 5.435763888888888  5.2373046875 5.893229166666665  C 4.7462022569444455 6.350694444444443  4.500651041666666 6.92925347222222  4.500651041666666 7.62890625  C 4.500651041666666 8.315104166666666  4.739474826388889 8.890299479166666  5.217122395833334 9.3544921875  C 5.694769965277778 9.818684895833334  6.317057291666666 10.05078125  7.083984375 10.05078125  L 7.104166666666666 10.05078125  C 7.898003472222223 10.05078125  8.537109375000002 9.818684895833334  9.021484375 9.3544921875  Z " stroke-width="0" stroke-dasharray="0" stroke="rgba(255, 255, 255, 0)" fill="none" transform="matrix(1 0 0 1 270 1904 )" class="stroke" mask="url(#Clip6)" />
    <path d="M 21.5546875 18.466796875  L 21.5546875 25.954427083333336  L 26.216796875 25.954427083333336  L 26.216796875 17.921875  C 26.216796875 15.849826388888886  25.725694444444446 14.282335069444443  24.743489583333336 13.219401041666666  C 23.761284722222225 12.15646701388889  22.462890625 11.625  20.848307291666664 11.625  C 19.018446180555557 11.625  17.612413194444446 12.412109375  16.630208333333336 13.986328125  L 16.670572916666664 13.986328125  L 16.670572916666664 11.947916666666666  L 12.008463541666668 11.947916666666666  C 12.048828125 12.8359375  12.048828125 17.504774305555554  12.008463541666668 25.954427083333336  L 16.670572916666664 25.954427083333336  L 16.670572916666664 18.123697916666668  C 16.670572916666664 17.612413194444446  16.717664930555557 17.235677083333332  16.811848958333336 16.993489583333332  C 17.013671875 16.522569444444446  17.31640625 16.122287326388886  17.720052083333336 15.79264322916667  C 18.123697916666664 15.462999131944443  18.621527777777782 15.298177083333334  19.213541666666664 15.298177083333334  C 20.774305555555557 15.298177083333334  21.5546875 16.354383680555554  21.5546875 18.466796875  Z " stroke-width="0" stroke-dasharray="0" stroke="rgba(255, 255, 255, 0)" fill="none" transform="matrix(1 0 0 1 270 1904 )" class="stroke" mask="url(#Clip6)" />
    <path d="M 29.294596354166664 1.7054036458333344  C 30.431532118055554 2.8423394097222197  31 4.211371527777773  31 5.8125  L 31 25.1875  C 31 26.788628472222218  30.431532118055554 28.157660590277782  29.294596354166664 29.294596354166664  C 28.157660590277782 30.431532118055554  26.788628472222225 31  25.1875 31  L 5.8125 31  C 4.211371527777778 31  2.8423394097222228 30.431532118055554  1.7054036458333335 29.294596354166664  C 0.5684678819444443 28.157660590277782  0 26.788628472222218  0 25.1875  L 0 5.8125  C 0 4.211371527777773  0.5684678819444443 2.8423394097222197  1.7054036458333335 1.7054036458333344  C 2.8423394097222228 0.5684678819444425  4.211371527777778 0  5.8125 0  L 25.1875 0  C 26.788628472222225 0  28.157660590277782 0.5684678819444425  29.294596354166664 1.7054036458333344  Z " stroke-width="0" stroke-dasharray="0" stroke="rgba(255, 255, 255, 0)" fill="none" transform="matrix(1 0 0 1 270 1904 )" class="stroke" mask="url(#Clip6)" />
  </g>
</svg>