<?xml version="1.0" encoding="utf-8"?>
<svg version="1.1" xmlns:xlink="http://www.w3.org/1999/xlink" width="38px" height="28px" xmlns="http://www.w3.org/2000/svg">
  <defs>
    <pattern id="BGPattern" patternUnits="userSpaceOnUse" alignment="0 0" imageRepeat="None" />
    <mask fill="white" id="Clip12">
      <path d="M 37.46407663650878 15.53125  C 37.821358878836264 15.703598484848484  38 15.988636363636363  38 16.386363636363637  C 38 16.797348484848484  37.79102359411034 17.234848484848484  37.37307078233103 17.698863636363637  L 30.577967003725387 25.573863636363637  C 29.998226006741177 26.25  29.185914493524926 26.82339015151515  28.141032464076638 27.29403409090909  C 27.096150434628353 27.76467803030303  26.12879191059074 28  25.23895689196381 28  L 3.2357637040979244 28  C 2.7773638460173853 28  2.3695227958133764 27.913825757575758  2.0122405534858965 27.741477272727273  C 1.6549583111584178 27.569128787878785  1.476317189994678 27.28409090909091  1.476317189994678 26.886363636363637  C 1.476317189994678 26.475378787878785  1.6852935958843358 26.03787878787879  2.103246407663651 25.573863636363637  L 8.898350186269292 17.698863636363637  C 9.478091183253506 17.022727272727273  10.290402696469753 16.449337121212118  11.335284725918042 15.978693181818182  C 12.38016675536633 15.508049242424239  13.34752527940394 15.272727272727272  14.237360298030866 15  L 36.240553485896754 15  C 36.698953343977294 15.272727272727272  37.10679439418131 15.358901515151514  37.46407663650878 15.53125  Z M 29.728579031399683 6.40340909090909  C 30.61841405002661 7.27840909090909  31.06333155934007 8.325757575757573  31.06333155934007 9.545454545454547  L 31.06333155934007 13  L 14.237360298030866 13  C 12.970019513925847 12.727272727272728  11.642008160368992 13.042140151515152  10.253326237360298 13.671875  C 8.864644314351606 14.301609848484848  7.759091715451482 15.09375  6.9366684406599255 16.048295454545457  L 0.12134113890367215 23.923295454545453  L 0.020223523150612027 24.042613636363637  C 0.020223523150612027 23.989583333333332  0.01685293595884336 23.906723484848488  0.010111761575306013 23.794034090909093  C 0.0033705871917686712 23.681344696969695  0 23.59848484848485  0 23.545454545454547  L 0 4.454545454545453  C 0 3.2348484848484804  0.4449175093134646 2.1875  1.3347525279403938 1.3125  C 2.2245875465673235 0.4375  3.289693099166224 0  4.530069185737094 0  L 11.001596593932943 0  C 12.241972680503814 0  13.307078233102713 0.4375  14.196913251729644 1.3125  C 15.086748270356573 2.1875  15.531665779670035 3.2348484848484804  15.531665779670035 4.454545454545453  L 15.531665779670035 5  L 26.53326237360298 5  C 27.773638460173856 5.09090909090909  28.83874401277275 5.52840909090909  29.728579031399683 6.40340909090909  Z " fill-rule="evenodd" />
    </mask>
  </defs>
  <g transform="matrix(1 0 0 1 -284 -570 )">
    <path d="M 37.46407663650878 15.53125  C 37.821358878836264 15.703598484848484  38 15.988636363636363  38 16.386363636363637  C 38 16.797348484848484  37.79102359411034 17.234848484848484  37.37307078233103 17.698863636363637  L 30.577967003725387 25.573863636363637  C 29.998226006741177 26.25  29.185914493524926 26.82339015151515  28.141032464076638 27.29403409090909  C 27.096150434628353 27.76467803030303  26.12879191059074 28  25.23895689196381 28  L 3.2357637040979244 28  C 2.7773638460173853 28  2.3695227958133764 27.913825757575758  2.0122405534858965 27.741477272727273  C 1.6549583111584178 27.569128787878785  1.476317189994678 27.28409090909091  1.476317189994678 26.886363636363637  C 1.476317189994678 26.475378787878785  1.6852935958843358 26.03787878787879  2.103246407663651 25.573863636363637  L 8.898350186269292 17.698863636363637  C 9.478091183253506 17.022727272727273  10.290402696469753 16.449337121212118  11.335284725918042 15.978693181818182  C 12.38016675536633 15.508049242424239  13.34752527940394 15.272727272727272  14.237360298030866 15  L 36.240553485896754 15  C 36.698953343977294 15.272727272727272  37.10679439418131 15.358901515151514  37.46407663650878 15.53125  Z M 29.728579031399683 6.40340909090909  C 30.61841405002661 7.27840909090909  31.06333155934007 8.325757575757573  31.06333155934007 9.545454545454547  L 31.06333155934007 13  L 14.237360298030866 13  C 12.970019513925847 12.727272727272728  11.642008160368992 13.042140151515152  10.253326237360298 13.671875  C 8.864644314351606 14.301609848484848  7.759091715451482 15.09375  6.9366684406599255 16.048295454545457  L 0.12134113890367215 23.923295454545453  L 0.020223523150612027 24.042613636363637  C 0.020223523150612027 23.989583333333332  0.01685293595884336 23.906723484848488  0.010111761575306013 23.794034090909093  C 0.0033705871917686712 23.681344696969695  0 23.59848484848485  0 23.545454545454547  L 0 4.454545454545453  C 0 3.2348484848484804  0.4449175093134646 2.1875  1.3347525279403938 1.3125  C 2.2245875465673235 0.4375  3.289693099166224 0  4.530069185737094 0  L 11.001596593932943 0  C 12.241972680503814 0  13.307078233102713 0.4375  14.196913251729644 1.3125  C 15.086748270356573 2.1875  15.531665779670035 3.2348484848484804  15.531665779670035 4.454545454545453  L 15.531665779670035 5  L 26.53326237360298 5  C 27.773638460173856 5.09090909090909  28.83874401277275 5.52840909090909  29.728579031399683 6.40340909090909  Z " fill-rule="nonzero" fill="rgba(107, 153, 80, 1)" stroke="none" transform="matrix(1 0 0 1 284 570 )" class="fill" />
    <path d="M 37.46407663650878 15.53125  C 37.821358878836264 15.703598484848484  38 15.988636363636363  38 16.386363636363637  C 38 16.797348484848484  37.79102359411034 17.234848484848484  37.37307078233103 17.698863636363637  L 30.577967003725387 25.573863636363637  C 29.998226006741177 26.25  29.185914493524926 26.82339015151515  28.141032464076638 27.29403409090909  C 27.096150434628353 27.76467803030303  26.12879191059074 28  25.23895689196381 28  L 3.2357637040979244 28  C 2.7773638460173853 28  2.3695227958133764 27.913825757575758  2.0122405534858965 27.741477272727273  C 1.6549583111584178 27.569128787878785  1.476317189994678 27.28409090909091  1.476317189994678 26.886363636363637  C 1.476317189994678 26.475378787878785  1.6852935958843358 26.03787878787879  2.103246407663651 25.573863636363637  L 8.898350186269292 17.698863636363637  C 9.478091183253506 17.022727272727273  10.290402696469753 16.449337121212118  11.335284725918042 15.978693181818182  C 12.38016675536633 15.508049242424239  13.34752527940394 15.272727272727272  14.237360298030866 15  L 36.240553485896754 15  C 36.698953343977294 15.272727272727272  37.10679439418131 15.358901515151514  37.46407663650878 15.53125  Z " stroke-width="0" stroke-dasharray="0" stroke="rgba(255, 255, 255, 0)" fill="none" transform="matrix(1 0 0 1 284 570 )" class="stroke" mask="url(#Clip12)" />
    <path d="M 29.728579031399683 6.40340909090909  C 30.61841405002661 7.27840909090909  31.06333155934007 8.325757575757573  31.06333155934007 9.545454545454547  L 31.06333155934007 13  L 14.237360298030866 13  C 12.970019513925847 12.727272727272728  11.642008160368992 13.042140151515152  10.253326237360298 13.671875  C 8.864644314351606 14.301609848484848  7.759091715451482 15.09375  6.9366684406599255 16.048295454545457  L 0.12134113890367215 23.923295454545453  L 0.020223523150612027 24.042613636363637  C 0.020223523150612027 23.989583333333332  0.01685293595884336 23.906723484848488  0.010111761575306013 23.794034090909093  C 0.0033705871917686712 23.681344696969695  0 23.59848484848485  0 23.545454545454547  L 0 4.454545454545453  C 0 3.2348484848484804  0.4449175093134646 2.1875  1.3347525279403938 1.3125  C 2.2245875465673235 0.4375  3.289693099166224 0  4.530069185737094 0  L 11.001596593932943 0  C 12.241972680503814 0  13.307078233102713 0.4375  14.196913251729644 1.3125  C 15.086748270356573 2.1875  15.531665779670035 3.2348484848484804  15.531665779670035 4.454545454545453  L 15.531665779670035 5  L 26.53326237360298 5  C 27.773638460173856 5.09090909090909  28.83874401277275 5.52840909090909  29.728579031399683 6.40340909090909  Z " stroke-width="0" stroke-dasharray="0" stroke="rgba(255, 255, 255, 0)" fill="none" transform="matrix(1 0 0 1 284 570 )" class="stroke" mask="url(#Clip12)" />
  </g>
</svg>