<?xml version="1.0" encoding="utf-8"?>
<svg version="1.1" xmlns:xlink="http://www.w3.org/1999/xlink" width="32px" height="32px" xmlns="http://www.w3.org/2000/svg">
  <defs>
    <pattern id="BGPattern" patternUnits="userSpaceOnUse" alignment="0 0" imageRepeat="None" />
    <mask fill="white" id="Clip15">
      <path d="M 20.791666666666668 20.458333333333336  C 22.069444444444446 19.263888888888886  23.583333333333332 18.666666666666664  25.333333333333332 18.666666666666664  C 27.180555555555557 18.666666666666664  28.753472222222225 19.31597222222222  30.052083333333332 20.614583333333336  C 31.350694444444443 21.913194444444443  32 23.486111111111107  32 25.333333333333332  C 32 27.180555555555557  31.350694444444443 28.753472222222225  30.052083333333332 30.052083333333332  C 28.753472222222225 31.350694444444443  27.180555555555557 32  25.333333333333332 32  C 23.486111111111114 32  21.913194444444446 31.350694444444443  20.614583333333332 30.052083333333332  C 19.315972222222225 28.753472222222225  18.666666666666668 27.180555555555557  18.666666666666668 25.333333333333332  C 18.666666666666668 25.166666666666668  18.680555555555557 24.930555555555554  18.708333333333332 24.625  L 11.208333333333334 20.875  C 9.930555555555555 22.069444444444443  8.416666666666666 22.666666666666664  6.666666666666667 22.666666666666664  C 4.819444444444445 22.666666666666664  3.246527777777778 22.017361111111107  1.9479166666666667 20.71875  C 0.6493055555555555 19.420138888888886  0 17.84722222222222  0 16  C 0 14.152777777777775  0.6493055555555555 12.57986111111111  1.9479166666666667 11.28125  C 3.246527777777778 9.982638888888886  4.819444444444445 9.333333333333332  6.666666666666667 9.333333333333332  C 8.416666666666666 9.333333333333332  9.930555555555555 9.930555555555554  11.208333333333334 11.125  L 18.708333333333332 7.375  C 18.680555555555557 7.069444444444443  18.666666666666668 6.833333333333332  18.666666666666668 6.666666666666668  C 18.666666666666668 4.819444444444443  19.315972222222225 3.246527777777775  20.614583333333332 1.9479166666666679  C 21.913194444444446 0.6493055555555536  23.486111111111114 0  25.333333333333332 0  C 27.180555555555557 0  28.753472222222225 0.6493055555555536  30.052083333333332 1.9479166666666679  C 31.350694444444443 3.246527777777775  32 4.819444444444443  32 6.666666666666668  C 32 8.513888888888886  31.350694444444443 10.086805555555554  30.052083333333332 11.385416666666668  C 28.753472222222225 12.684027777777779  27.180555555555557 13.333333333333332  25.333333333333332 13.333333333333332  C 23.583333333333332 13.333333333333332  22.069444444444446 12.73611111111111  20.791666666666668 11.541666666666668  L 13.291666666666666 15.291666666666668  C 13.319444444444445 15.597222222222221  13.333333333333334 15.833333333333332  13.333333333333334 16  C 13.333333333333334 16.166666666666664  13.319444444444445 16.40277777777778  13.291666666666666 16.708333333333336  L 20.791666666666668 20.458333333333336  Z " fill-rule="evenodd" />
    </mask>
  </defs>
  <g transform="matrix(1 0 0 1 -201 -567 )">
    <path d="M 20.791666666666668 20.458333333333336  C 22.069444444444446 19.263888888888886  23.583333333333332 18.666666666666664  25.333333333333332 18.666666666666664  C 27.180555555555557 18.666666666666664  28.753472222222225 19.31597222222222  30.052083333333332 20.614583333333336  C 31.350694444444443 21.913194444444443  32 23.486111111111107  32 25.333333333333332  C 32 27.180555555555557  31.350694444444443 28.753472222222225  30.052083333333332 30.052083333333332  C 28.753472222222225 31.350694444444443  27.180555555555557 32  25.333333333333332 32  C 23.486111111111114 32  21.913194444444446 31.350694444444443  20.614583333333332 30.052083333333332  C 19.315972222222225 28.753472222222225  18.666666666666668 27.180555555555557  18.666666666666668 25.333333333333332  C 18.666666666666668 25.166666666666668  18.680555555555557 24.930555555555554  18.708333333333332 24.625  L 11.208333333333334 20.875  C 9.930555555555555 22.069444444444443  8.416666666666666 22.666666666666664  6.666666666666667 22.666666666666664  C 4.819444444444445 22.666666666666664  3.246527777777778 22.017361111111107  1.9479166666666667 20.71875  C 0.6493055555555555 19.420138888888886  0 17.84722222222222  0 16  C 0 14.152777777777775  0.6493055555555555 12.57986111111111  1.9479166666666667 11.28125  C 3.246527777777778 9.982638888888886  4.819444444444445 9.333333333333332  6.666666666666667 9.333333333333332  C 8.416666666666666 9.333333333333332  9.930555555555555 9.930555555555554  11.208333333333334 11.125  L 18.708333333333332 7.375  C 18.680555555555557 7.069444444444443  18.666666666666668 6.833333333333332  18.666666666666668 6.666666666666668  C 18.666666666666668 4.819444444444443  19.315972222222225 3.246527777777775  20.614583333333332 1.9479166666666679  C 21.913194444444446 0.6493055555555536  23.486111111111114 0  25.333333333333332 0  C 27.180555555555557 0  28.753472222222225 0.6493055555555536  30.052083333333332 1.9479166666666679  C 31.350694444444443 3.246527777777775  32 4.819444444444443  32 6.666666666666668  C 32 8.513888888888886  31.350694444444443 10.086805555555554  30.052083333333332 11.385416666666668  C 28.753472222222225 12.684027777777779  27.180555555555557 13.333333333333332  25.333333333333332 13.333333333333332  C 23.583333333333332 13.333333333333332  22.069444444444446 12.73611111111111  20.791666666666668 11.541666666666668  L 13.291666666666666 15.291666666666668  C 13.319444444444445 15.597222222222221  13.333333333333334 15.833333333333332  13.333333333333334 16  C 13.333333333333334 16.166666666666664  13.319444444444445 16.40277777777778  13.291666666666666 16.708333333333336  L 20.791666666666668 20.458333333333336  Z " fill-rule="nonzero" fill="rgba(107, 153, 80, 1)" stroke="none" transform="matrix(1 0 0 1 201 567 )" class="fill" />
    <path d="M 20.791666666666668 20.458333333333336  C 22.069444444444446 19.263888888888886  23.583333333333332 18.666666666666664  25.333333333333332 18.666666666666664  C 27.180555555555557 18.666666666666664  28.753472222222225 19.31597222222222  30.052083333333332 20.614583333333336  C 31.350694444444443 21.913194444444443  32 23.486111111111107  32 25.333333333333332  C 32 27.180555555555557  31.350694444444443 28.753472222222225  30.052083333333332 30.052083333333332  C 28.753472222222225 31.350694444444443  27.180555555555557 32  25.333333333333332 32  C 23.486111111111114 32  21.913194444444446 31.350694444444443  20.614583333333332 30.052083333333332  C 19.315972222222225 28.753472222222225  18.666666666666668 27.180555555555557  18.666666666666668 25.333333333333332  C 18.666666666666668 25.166666666666668  18.680555555555557 24.930555555555554  18.708333333333332 24.625  L 11.208333333333334 20.875  C 9.930555555555555 22.069444444444443  8.416666666666666 22.666666666666664  6.666666666666667 22.666666666666664  C 4.819444444444445 22.666666666666664  3.246527777777778 22.017361111111107  1.9479166666666667 20.71875  C 0.6493055555555555 19.420138888888886  0 17.84722222222222  0 16  C 0 14.152777777777775  0.6493055555555555 12.57986111111111  1.9479166666666667 11.28125  C 3.246527777777778 9.982638888888886  4.819444444444445 9.333333333333332  6.666666666666667 9.333333333333332  C 8.416666666666666 9.333333333333332  9.930555555555555 9.930555555555554  11.208333333333334 11.125  L 18.708333333333332 7.375  C 18.680555555555557 7.069444444444443  18.666666666666668 6.833333333333332  18.666666666666668 6.666666666666668  C 18.666666666666668 4.819444444444443  19.315972222222225 3.246527777777775  20.614583333333332 1.9479166666666679  C 21.913194444444446 0.6493055555555536  23.486111111111114 0  25.333333333333332 0  C 27.180555555555557 0  28.753472222222225 0.6493055555555536  30.052083333333332 1.9479166666666679  C 31.350694444444443 3.246527777777775  32 4.819444444444443  32 6.666666666666668  C 32 8.513888888888886  31.350694444444443 10.086805555555554  30.052083333333332 11.385416666666668  C 28.753472222222225 12.684027777777779  27.180555555555557 13.333333333333332  25.333333333333332 13.333333333333332  C 23.583333333333332 13.333333333333332  22.069444444444446 12.73611111111111  20.791666666666668 11.541666666666668  L 13.291666666666666 15.291666666666668  C 13.319444444444445 15.597222222222221  13.333333333333334 15.833333333333332  13.333333333333334 16  C 13.333333333333334 16.166666666666664  13.319444444444445 16.40277777777778  13.291666666666666 16.708333333333336  L 20.791666666666668 20.458333333333336  Z " stroke-width="0" stroke-dasharray="0" stroke="rgba(255, 255, 255, 0)" fill="none" transform="matrix(1 0 0 1 201 567 )" class="stroke" mask="url(#Clip15)" />
  </g>
</svg>