<?xml version="1.0" encoding="utf-8"?>
<svg version="1.1" xmlns:xlink="http://www.w3.org/1999/xlink" width="21px" height="17px" xmlns="http://www.w3.org/2000/svg">
  <defs>
    <pattern id="BGPattern" patternUnits="userSpaceOnUse" alignment="0 0" imageRepeat="None" />
    <mask fill="white" id="Clip4">
      <path d="M 19.828125 6.531960227272728  C 20.273437500000004 6.218039772727272  20.6640625 5.867897727272728  21 5.48153409090909  L 21 15.068181818181818  C 21 15.599431818181818  20.816406250000004 16.054214015151516  20.44921875 16.43252840909091  C 20.082031250000004 16.8108428030303  19.640625000000004 17  19.125 17  L 1.875 17  C 1.3593750000000002 17  0.9179687500000001 16.8108428030303  0.5507812500000001 16.43252840909091  C 0.18359375000000008 16.054214015151516  0 15.599431818181818  0 15.068181818181818  L 0 5.48153409090909  C 0.3437500000000001 5.875946969696969  0.7382812500000001 6.226089015151513  1.18359375 6.531960227272728  C 4.011718750000001 8.512073863636363  5.953125 9.900568181818182  7.0078125 10.697443181818182  C 7.453125 11.035511363636363  7.814453125000001 11.299124053030301  8.091796875 11.48828125  C 8.369140625 11.677438446969695  8.73828125 11.870620265151516  9.19921875 12.067826704545457  C 9.660156250000002 12.265033143939393  10.08984375 12.363636363636363  10.48828125 12.363636363636363  L 10.5 12.363636363636363  L 10.51171875 12.363636363636363  C 10.910156250000002 12.363636363636363  11.33984375 12.265033143939393  11.80078125 12.067826704545457  C 12.261718750000004 11.870620265151516  12.630859375000004 11.677438446969695  12.908203125 11.48828125  C 13.185546875 11.299124053030301  13.546875 11.035511363636363  13.992187500000002 10.697443181818182  C 15.320312500000002 9.707386363636363  17.265625000000004 8.318892045454547  19.828125 6.531960227272728  Z M 20.443359375 0.56747159090909  C 20.814453125 0.9457859848484834  21 1.400568181818182  21 1.931818181818182  C 21 2.567708333333331  20.80859375 3.175426136363636  20.42578125 3.75497159090909  C 20.04296875 4.334517045454546  19.566406250000004 4.829545454545454  18.99609375 5.240056818181818  C 16.058593750000004 7.34090909090909  14.230468750000004 8.648910984848484  13.51171875 9.1640625  C 13.433593750000002 9.220407196969697  13.267578125 9.343158143939393  13.013671875 9.532315340909092  C 12.759765625000002 9.721472537878787  12.548828125000004 9.874408143939393  12.380859374999998 9.991122159090908  C 12.212890625 10.107836174242422  12.009765625000002 10.238636363636363  11.771484375 10.383522727272728  C 11.533203125 10.528409090909092  11.30859375 10.637073863636363  11.09765625 10.709517045454543  C 10.88671875 10.781960227272728  10.69140625 10.818181818181818  10.51171875 10.818181818181818  L 10.5 10.818181818181818  L 10.48828125 10.818181818181818  C 10.30859375 10.818181818181818  10.11328125 10.781960227272728  9.90234375 10.709517045454543  C 9.69140625 10.637073863636363  9.466796875 10.528409090909092  9.228515625 10.383522727272728  C 8.990234375 10.238636363636363  8.787109375 10.107836174242422  8.619140625 9.991122159090908  C 8.451171875 9.874408143939393  8.240234375 9.721472537878787  7.986328125 9.532315340909092  C 7.732421875000001 9.343158143939393  7.566406250000002 9.220407196969697  7.488281250000001 9.1640625  C 6.77734375 8.648910984848484  5.75390625 7.914417613636364  4.41796875 6.960582386363636  C 3.08203125 6.006747159090908  2.2812500000000004 5.433238636363634  2.015625 5.240056818181818  C 1.53125 4.901988636363634  1.0742187500000002 4.437144886363636  0.6445312500000001 3.845525568181818  C 0.21484375000000008 3.25390625  0 2.704545454545454  0 2.197443181818182  C 0 1.569602272727272  0.16210937500000006 1.046401515151513  0.4863281250000001 0.62784090909091  C 0.8105468750000002 0.20928030303030143  1.2734375000000002 0  1.875 0  L 19.125 0  C 19.6328125 0  20.072265625 0.1891571969696948  20.443359375 0.56747159090909  Z " fill-rule="evenodd" />
    </mask>
  </defs>
  <g transform="matrix(1 0 0 1 -50 -2004 )">
    <path d="M 19.828125 6.531960227272728  C 20.273437500000004 6.218039772727272  20.6640625 5.867897727272728  21 5.48153409090909  L 21 15.068181818181818  C 21 15.599431818181818  20.816406250000004 16.054214015151516  20.44921875 16.43252840909091  C 20.082031250000004 16.8108428030303  19.640625000000004 17  19.125 17  L 1.875 17  C 1.3593750000000002 17  0.9179687500000001 16.8108428030303  0.5507812500000001 16.43252840909091  C 0.18359375000000008 16.054214015151516  0 15.599431818181818  0 15.068181818181818  L 0 5.48153409090909  C 0.3437500000000001 5.875946969696969  0.7382812500000001 6.226089015151513  1.18359375 6.531960227272728  C 4.011718750000001 8.512073863636363  5.953125 9.900568181818182  7.0078125 10.697443181818182  C 7.453125 11.035511363636363  7.814453125000001 11.299124053030301  8.091796875 11.48828125  C 8.369140625 11.677438446969695  8.73828125 11.870620265151516  9.19921875 12.067826704545457  C 9.660156250000002 12.265033143939393  10.08984375 12.363636363636363  10.48828125 12.363636363636363  L 10.5 12.363636363636363  L 10.51171875 12.363636363636363  C 10.910156250000002 12.363636363636363  11.33984375 12.265033143939393  11.80078125 12.067826704545457  C 12.261718750000004 11.870620265151516  12.630859375000004 11.677438446969695  12.908203125 11.48828125  C 13.185546875 11.299124053030301  13.546875 11.035511363636363  13.992187500000002 10.697443181818182  C 15.320312500000002 9.707386363636363  17.265625000000004 8.318892045454547  19.828125 6.531960227272728  Z M 20.443359375 0.56747159090909  C 20.814453125 0.9457859848484834  21 1.400568181818182  21 1.931818181818182  C 21 2.567708333333331  20.80859375 3.175426136363636  20.42578125 3.75497159090909  C 20.04296875 4.334517045454546  19.566406250000004 4.829545454545454  18.99609375 5.240056818181818  C 16.058593750000004 7.34090909090909  14.230468750000004 8.648910984848484  13.51171875 9.1640625  C 13.433593750000002 9.220407196969697  13.267578125 9.343158143939393  13.013671875 9.532315340909092  C 12.759765625000002 9.721472537878787  12.548828125000004 9.874408143939393  12.380859374999998 9.991122159090908  C 12.212890625 10.107836174242422  12.009765625000002 10.238636363636363  11.771484375 10.383522727272728  C 11.533203125 10.528409090909092  11.30859375 10.637073863636363  11.09765625 10.709517045454543  C 10.88671875 10.781960227272728  10.69140625 10.818181818181818  10.51171875 10.818181818181818  L 10.5 10.818181818181818  L 10.48828125 10.818181818181818  C 10.30859375 10.818181818181818  10.11328125 10.781960227272728  9.90234375 10.709517045454543  C 9.69140625 10.637073863636363  9.466796875 10.528409090909092  9.228515625 10.383522727272728  C 8.990234375 10.238636363636363  8.787109375 10.107836174242422  8.619140625 9.991122159090908  C 8.451171875 9.874408143939393  8.240234375 9.721472537878787  7.986328125 9.532315340909092  C 7.732421875000001 9.343158143939393  7.566406250000002 9.220407196969697  7.488281250000001 9.1640625  C 6.77734375 8.648910984848484  5.75390625 7.914417613636364  4.41796875 6.960582386363636  C 3.08203125 6.006747159090908  2.2812500000000004 5.433238636363634  2.015625 5.240056818181818  C 1.53125 4.901988636363634  1.0742187500000002 4.437144886363636  0.6445312500000001 3.845525568181818  C 0.21484375000000008 3.25390625  0 2.704545454545454  0 2.197443181818182  C 0 1.569602272727272  0.16210937500000006 1.046401515151513  0.4863281250000001 0.62784090909091  C 0.8105468750000002 0.20928030303030143  1.2734375000000002 0  1.875 0  L 19.125 0  C 19.6328125 0  20.072265625 0.1891571969696948  20.443359375 0.56747159090909  Z " fill-rule="nonzero" fill="rgba(56, 102, 65, 1)" stroke="none" transform="matrix(1 0 0 1 50 2004 )" class="fill" />
    <path d="M 19.828125 6.531960227272728  C 20.273437500000004 6.218039772727272  20.6640625 5.867897727272728  21 5.48153409090909  L 21 15.068181818181818  C 21 15.599431818181818  20.816406250000004 16.054214015151516  20.44921875 16.43252840909091  C 20.082031250000004 16.8108428030303  19.640625000000004 17  19.125 17  L 1.875 17  C 1.3593750000000002 17  0.9179687500000001 16.8108428030303  0.5507812500000001 16.43252840909091  C 0.18359375000000008 16.054214015151516  0 15.599431818181818  0 15.068181818181818  L 0 5.48153409090909  C 0.3437500000000001 5.875946969696969  0.7382812500000001 6.226089015151513  1.18359375 6.531960227272728  C 4.011718750000001 8.512073863636363  5.953125 9.900568181818182  7.0078125 10.697443181818182  C 7.453125 11.035511363636363  7.814453125000001 11.299124053030301  8.091796875 11.48828125  C 8.369140625 11.677438446969695  8.73828125 11.870620265151516  9.19921875 12.067826704545457  C 9.660156250000002 12.265033143939393  10.08984375 12.363636363636363  10.48828125 12.363636363636363  L 10.5 12.363636363636363  L 10.51171875 12.363636363636363  C 10.910156250000002 12.363636363636363  11.33984375 12.265033143939393  11.80078125 12.067826704545457  C 12.261718750000004 11.870620265151516  12.630859375000004 11.677438446969695  12.908203125 11.48828125  C 13.185546875 11.299124053030301  13.546875 11.035511363636363  13.992187500000002 10.697443181818182  C 15.320312500000002 9.707386363636363  17.265625000000004 8.318892045454547  19.828125 6.531960227272728  Z " stroke-width="0" stroke-dasharray="0" stroke="rgba(255, 255, 255, 0)" fill="none" transform="matrix(1 0 0 1 50 2004 )" class="stroke" mask="url(#Clip4)" />
    <path d="M 20.443359375 0.56747159090909  C 20.814453125 0.9457859848484834  21 1.400568181818182  21 1.931818181818182  C 21 2.567708333333331  20.80859375 3.175426136363636  20.42578125 3.75497159090909  C 20.04296875 4.334517045454546  19.566406250000004 4.829545454545454  18.99609375 5.240056818181818  C 16.058593750000004 7.34090909090909  14.230468750000004 8.648910984848484  13.51171875 9.1640625  C 13.433593750000002 9.220407196969697  13.267578125 9.343158143939393  13.013671875 9.532315340909092  C 12.759765625000002 9.721472537878787  12.548828125000004 9.874408143939393  12.380859374999998 9.991122159090908  C 12.212890625 10.107836174242422  12.009765625000002 10.238636363636363  11.771484375 10.383522727272728  C 11.533203125 10.528409090909092  11.30859375 10.637073863636363  11.09765625 10.709517045454543  C 10.88671875 10.781960227272728  10.69140625 10.818181818181818  10.51171875 10.818181818181818  L 10.5 10.818181818181818  L 10.48828125 10.818181818181818  C 10.30859375 10.818181818181818  10.11328125 10.781960227272728  9.90234375 10.709517045454543  C 9.69140625 10.637073863636363  9.466796875 10.528409090909092  9.228515625 10.383522727272728  C 8.990234375 10.238636363636363  8.787109375 10.107836174242422  8.619140625 9.991122159090908  C 8.451171875 9.874408143939393  8.240234375 9.721472537878787  7.986328125 9.532315340909092  C 7.732421875000001 9.343158143939393  7.566406250000002 9.220407196969697  7.488281250000001 9.1640625  C 6.77734375 8.648910984848484  5.75390625 7.914417613636364  4.41796875 6.960582386363636  C 3.08203125 6.006747159090908  2.2812500000000004 5.433238636363634  2.015625 5.240056818181818  C 1.53125 4.901988636363634  1.0742187500000002 4.437144886363636  0.6445312500000001 3.845525568181818  C 0.21484375000000008 3.25390625  0 2.704545454545454  0 2.197443181818182  C 0 1.569602272727272  0.16210937500000006 1.046401515151513  0.4863281250000001 0.62784090909091  C 0.8105468750000002 0.20928030303030143  1.2734375000000002 0  1.875 0  L 19.125 0  C 19.6328125 0  20.072265625 0.1891571969696948  20.443359375 0.56747159090909  Z " stroke-width="0" stroke-dasharray="0" stroke="rgba(255, 255, 255, 0)" fill="none" transform="matrix(1 0 0 1 50 2004 )" class="stroke" mask="url(#Clip4)" />
  </g>
</svg>