<svg width="511" height="389" viewBox="0 0 511 389" fill="none" xmlns="http://www.w3.org/2000/svg">
<path d="M393.303 0H491.5C502.27 0 511 8.73044 511 19.5V289C511 344.228 466.228 389 411 389H313.514C306.05 389 300 382.95 300 375.486C300 368.023 293.95 361.973 286.486 361.973H34.5081C15.4498 361.973 0 346.523 0 327.465C0 308.406 15.4498 292.957 34.5081 292.957H128.382C134.246 292.957 139 288.203 139 282.339C139 276.475 134.246 271.721 128.382 271.721H113.25C99.0287 271.721 87.5 260.192 87.5 245.971V187.143C87.5 162.152 108.065 141.893 133.055 141.893C157.711 141.893 178 121.906 178 97.25C178 72.5942 197.987 52.6067 222.643 52.6067H232.5H340.697C355.224 52.6067 367 40.8303 367 26.3034C367 11.7764 378.776 0 393.303 0Z" fill="#EECFF7"/>
<rect x="105" y="14" width="77" height="41" rx="20.5" fill="#EECFF7"/>
</svg>
