<svg width="326" height="156" viewBox="0 0 326 156" fill="none" xmlns="http://www.w3.org/2000/svg">
<path d="M0 17H246.5C280.466 17 308 44.5345 308 78.5C308 112.466 280.466 140 246.5 140H0" stroke="#127E3F" stroke-width="6"/>
<path d="M0 30H242.5C269.286 30 291 51.7142 291 78.5C291 105.286 269.286 127 242.5 127H0" stroke="#57BA48" stroke-width="6"/>
<path d="M0 44H238.5C257.554 44 273 59.4462 273 78.5C273 97.5538 257.554 113 238.5 113H0" stroke="#97E34B" stroke-width="6"/>
<path d="M0 3H248C289.421 3 323 36.5786 323 78C323 119.421 289.421 153 248 153H0" stroke="#FD47BE" stroke-width="6"/>
</svg>
