<svg width="156" height="326" viewBox="0 0 156 326" fill="none" xmlns="http://www.w3.org/2000/svg">
<path d="M17 326V79.5C17 45.5345 44.5345 18 78.5 18C112.466 18 140 45.5345 140 79.5V326" stroke="#127E3F" stroke-width="6"/>
<path d="M30 326V83.5C30 56.7142 51.7142 35 78.5 35C105.286 35 127 56.7142 127 83.5V326" stroke="#57BA48" stroke-width="6"/>
<path d="M44 326V87.5C44 68.4462 59.4462 53 78.5 53C97.5538 53 113 68.4462 113 87.5V326" stroke="#97E34B" stroke-width="6"/>
<path d="M3 326V78C3 36.5786 36.5786 2.99999 78 2.99999C119.421 2.99999 153 36.5786 153 78V326" stroke="#FD47BE" stroke-width="6"/>
</svg>
