<svg width="243" height="326" viewBox="0 0 243 326" fill="none" xmlns="http://www.w3.org/2000/svg">
<path d="M-74 326C-75.6569 326 -77 324.657 -77 323L-77 293C-77 291.343 -78.3431 290 -80 290C-81.6569 290 -83 288.657 -83 287C-83 285.343 -81.6569 284 -80 284C-78.3431 284 -77 282.657 -77 281L-77 79.5C-77 43.8777 -48.1224 15 -12.5 15C22.8439 15 51.5486 43.428 51.9951 78.666L52 79.5C52 124.511 88.4888 161 133.5 161L163.5 161C199.122 161 228 189.878 228 225.5C228 261.122 199.122 290 163.5 290L-53 290C-62.9411 290 -71 298.059 -71 308L-71 323C-71 324.657 -72.3431 326 -74 326ZM163.5 284C195.809 284 222 257.809 222 225.5C222 193.191 195.809 167 163.5 167L133.5 167C85.1751 167 46 127.825 46 79.5L45.9951 78.7442C45.5904 46.7839 19.5563 21 -12.5 21C-44.8087 21 -71 47.1914 -71 79.5L-71 184C-71 239.228 -26.2285 284 29 284L163.5 284Z" fill="#127E3F"/>
<path d="M-61 326C-62.6569 326 -64 324.657 -64 323L-64 286.5C-64 281.253 -68.2533 277 -73.5 277L-80 277C-81.6569 277 -83 275.657 -83 274C-83 272.343 -81.6569 271 -80 271L-73.5 271C-68.2533 271 -64 266.747 -64 261.5L-64 83.5C-64 55.0574 -40.9427 32 -12.5 32C15.9426 32 39 55.0574 39 83.5C39 133.482 79.5182 174 129.5 174L159.5 174C187.943 174 211 197.057 211 225.5C211 253.943 187.943 277 159.5 277L-33.5 277C-47.031 277 -58 287.969 -58 301.5L-58 323C-58 324.657 -59.3431 326 -61 326ZM159.5 271C184.629 271 205 250.629 205 225.5C205 200.371 184.629 180 159.5 180L129.5 180C76.2045 180 33 136.795 33 83.5C33 58.371 12.6289 38 -12.5 38C-37.629 38 -58 58.3711 -58 83.5L-58 171C-58 226.228 -13.2285 271 42 271L159.5 271Z" fill="#57BA48"/>
<path d="M-47 326C-48.6569 326 -50 324.657 -50 323L-50 279.5C-50 270.387 -57.3873 263 -66.5 263L-80 263C-81.6569 263 -83 261.657 -83 260C-83 258.343 -81.6569 257 -80 257L-66.5 257C-57.3873 257 -50 249.613 -50 240.5L-50 87.5C-50 66.7894 -33.2107 50 -12.5 50C8.21065 50 25 66.7894 25 87.5C25 142.728 69.7715 188 125 188L155.5 188C176.211 188 193 204.789 193 225.5C193 246.211 176.211 263 155.5 263L-12.5 263C-29.897 263 -44 277.103 -44 294.5L-44 323C-44 324.657 -45.3431 326 -47 326ZM155.5 257C172.897 257 187 242.897 187 225.5C187 208.103 172.897 194 155.5 194L119 194C63.7715 194 19 149.228 19 94L19 87.5C19 70.103 4.89695 56 -12.5 56C-29.897 56 -44 70.103 -44 87.5L-44 157C-44 212.228 0.771524 257 56 257L155.5 257Z" fill="#97E34B"/>
<path d="M-80 304C-81.6569 304 -83 302.657 -83 301C-83 299.343 -81.6569 298 -80 298L165 298C204.764 298 237 265.765 237 226C237 186.235 204.764 154 165 154L136 154C94.0263 154 60 119.974 60 78C60 38.2355 27.7645 6.00002 -12 6.00002C-51.7645 6.00003 -84 38.2355 -84 78L-84 148.5C-84 150.157 -85.3432 151.5 -87 151.5C-88.6569 151.5 -90 150.157 -90 148.5L-90 78C-90 34.9218 -55.0782 2.60588e-05 -12 2.22928e-05C31.0782 1.85268e-05 66 34.9218 66 78C66 116.66 97.3401 148 136 148L165 148C208.078 148 243 182.922 243 226C243 269.078 208.078 304 165 304L-80 304Z" fill="#A842C1"/>
</svg>
