<svg width="323" height="422" viewBox="0 0 323 422" fill="none" xmlns="http://www.w3.org/2000/svg">
<path d="M297.454 5.5315C299.008 4.9587 300.733 5.75468 301.306 7.30937L311.677 35.4596C312.25 37.0143 313.975 37.8102 315.529 37.2374C317.084 36.6646 318.809 37.4606 319.382 39.0153C319.954 40.57 319.158 42.2947 317.604 42.8675C316.049 43.4403 315.253 45.1649 315.826 46.7196L385.487 235.795C397.803 269.221 380.689 306.301 347.263 318.617C314.099 330.836 277.336 314.084 264.735 281.173L264.442 280.392C248.881 238.157 202.027 216.532 159.791 232.093L131.641 242.465C98.2151 254.78 61.1346 237.666 48.8195 204.241C36.5043 170.815 53.6178 133.734 87.0437 121.419L290.194 46.5717C299.522 43.1349 304.298 32.7869 300.861 23.4588L295.676 9.38367C295.103 7.82897 295.899 6.1043 297.454 5.5315ZM89.118 127.049C58.8015 138.219 43.2799 171.85 54.4495 202.166C65.6191 232.483 99.2502 248.004 129.567 236.835L157.717 226.463C203.062 209.757 253.365 232.973 270.072 278.318L270.338 279.026C281.766 308.875 315.109 324.069 345.189 312.987C375.505 301.817 391.027 268.186 379.857 237.869L343.73 139.813C324.637 87.9898 267.148 61.4571 215.325 80.5504L89.118 127.049Z" fill="#127E3F"/>
<path d="M285.255 10.0258C286.81 9.45296 288.535 10.2489 289.107 11.8036L301.726 46.053C303.54 50.9762 309.001 53.4968 313.924 51.683L320.024 49.4358C321.578 48.863 323.303 49.659 323.876 51.2137C324.449 52.7684 323.653 54.493 322.098 55.0658L315.999 57.313C311.076 59.1269 308.555 64.5883 310.369 69.5115L371.906 236.536C381.739 263.225 368.075 292.832 341.386 302.665C314.697 312.498 285.09 298.833 275.257 272.145C257.978 225.245 205.95 201.233 159.05 218.512L130.9 228.884C104.211 238.717 74.6043 225.052 64.7712 198.363C54.9382 171.675 68.6025 142.068 95.2914 132.235L276.391 65.5116C289.088 60.8337 295.588 46.7489 290.91 34.0522L283.477 13.8779C282.905 12.3232 283.7 10.5986 285.255 10.0258ZM97.3657 137.865C73.7862 146.552 61.7138 172.71 70.4013 196.289C79.0887 219.869 105.246 231.941 128.826 223.254L156.976 212.882C206.985 194.457 262.462 220.061 280.887 270.07C289.575 293.65 315.732 305.722 339.312 297.035C362.891 288.347 374.964 262.19 366.276 238.61L336.026 156.506C316.933 104.682 259.444 78.1498 207.621 97.2431L97.3657 137.865Z" fill="#57BA48"/>
<path d="M272.118 14.8657C273.673 14.2929 275.398 15.0889 275.971 16.6436L291.009 57.4614C294.16 66.0122 303.645 70.3901 312.196 67.2397L324.864 62.5725C326.418 61.9997 328.143 62.7957 328.716 64.3504C329.289 65.9051 328.493 67.6298 326.938 68.2026L314.27 72.8697C305.72 76.0201 301.342 85.5058 304.492 94.0566L357.387 237.623C364.547 257.056 354.597 278.615 335.163 285.775C315.73 292.935 294.171 282.985 287.011 263.551C267.918 211.728 210.256 184.726 158.433 203.82L129.813 214.364C110.38 221.524 88.8214 211.574 81.6614 192.141C74.5014 172.707 84.4511 151.148 103.885 143.988L261.526 85.9083C277.85 79.8939 286.208 61.7848 280.193 45.4606L270.341 18.7179C269.768 17.1632 270.564 15.4385 272.118 14.8657ZM105.959 149.618C89.6348 155.633 81.277 173.742 87.2914 190.066C93.3058 206.39 111.415 214.748 127.739 208.734L161.989 196.115C213.812 177.022 271.301 203.555 290.394 255.378L292.641 261.477C298.656 277.801 316.765 286.159 333.089 280.145C349.413 274.13 357.771 256.021 351.757 239.697L327.729 174.482C308.636 122.659 251.147 96.1265 199.324 115.22L105.959 149.618Z" fill="#97E34B"/>
<path d="M310.689 24.1006C312.244 23.5278 313.969 24.3238 314.542 25.8785C315.114 27.4331 314.318 29.1578 312.764 29.7306L82.8705 114.431C45.5579 128.178 26.4543 169.57 40.2015 206.883C53.9487 244.195 95.3409 263.299 132.653 249.552L159.865 239.526C199.251 225.015 242.943 245.18 257.453 284.565C271.201 321.878 312.593 340.982 349.905 327.234C387.218 313.487 406.322 272.095 392.574 234.782L368.201 168.63C367.629 167.075 368.425 165.35 369.979 164.777C371.534 164.205 373.259 165.001 373.831 166.555L398.204 232.708C413.097 273.13 392.402 317.972 351.98 332.864C311.558 347.757 266.716 327.062 251.823 286.64C238.458 250.364 198.216 231.791 161.94 245.156L134.728 255.182C94.3058 270.075 49.4643 249.379 34.5715 208.957C19.6787 168.535 40.3742 123.694 80.7962 108.801L310.689 24.1006Z" fill="#A842C1"/>
</svg>
